<svg width="324" height="54" viewBox="0 0 324 54" fill="none" xmlns="http://www.w3.org/2000/svg">
<g clip-path="url(#clip0_1_69)">
<path d="M296.488 42.9809C295.626 44.7188 294.486 46.1625 292.958 47.3595C290.307 49.4389 287.294 50.8725 284.123 52.0356C280.113 53.503 277.976 54.2975 273.692 53.8986L269.195 53.4793C266.683 53.246 264.472 52.2418 262.47 50.771C259.735 48.7593 258.687 45.7737 260.347 42.6157C260.573 42.183 260.8 41.7062 261.074 41.2836C263.471 37.5779 267.082 35.0589 271.298 33.7606C276.468 32.1681 281.851 31.9956 287.129 33.1553C287.257 32.8849 287.234 32.6583 287.085 32.283L287.612 31.742L289.34 26.7346L291.467 20.9326L298.287 4.74372C298.506 4.22641 298.692 3.95592 299.24 3.73615L299.778 2.34989C299.92 1.98472 300.356 1.77171 300.636 1.94753L300.011 3.33717C299.757 3.90182 299.558 4.37856 299.362 4.9804C299.629 5.25427 300.271 3.32365 300.684 4.0134C300.799 4.20612 300.538 4.65243 300.352 4.91954C301.046 4.94997 301.235 4.31094 301.411 4.45295L301.661 4.65243L302.543 3.14445C303.47 3.69896 302.07 4.40223 302.57 4.87897C303.071 5.35571 303.098 3.48933 304.126 3.85111L303.74 4.81473C303.825 4.84854 304.224 4.9094 304.389 4.89926C304.717 4.87897 304.968 4.02692 305.14 4.0675L305.634 4.17908L306.195 3.70572L306.996 4.3008C307.132 4.39885 307.172 4.65243 307.125 4.93645C307.574 5.00069 308.254 5.10889 308.842 4.97702C309.224 4.89249 309.549 4.15879 309.742 3.83082L310.178 3.08021C310.222 3.00582 310.489 2.96187 310.56 3.00921C310.651 3.06668 310.678 3.32703 310.621 3.4217C309.15 5.87302 310.469 4.50705 309.83 5.61944L308.416 8.09104L306.523 11.9117C305.962 13.0444 305.546 14.1635 304.998 15.4585L309.525 15.4518C312.278 15.4518 314.942 15.2016 317.691 15.3064C319.033 15.3571 320.321 15.3706 321.643 15.3537C321.866 15.0325 322.069 14.7147 322.495 14.5625C322.475 14.8229 322.418 14.9953 322.309 15.3537L323.496 15.4112C323.547 15.4112 323.719 15.5769 323.682 15.6141C323.645 15.6512 323.496 15.8135 323.442 15.8135L322.046 15.8845C321.917 15.8913 321.647 16.1178 321.593 16.2227C321.451 16.4965 321.647 16.3748 321.951 16.9293C322.042 17.095 321.258 17.1051 320.48 18.0992C319.52 19.3299 320.778 18.5725 318.827 20.7703L318.945 21.2301C318.174 21.4499 317.674 22.2478 317.9 22.9951C317.681 23.0525 317.268 23.1641 317.305 23.3027L317.474 23.9316C317.606 24.4151 316.622 23.5327 315.956 25.2942L316.362 25.3787C316.423 25.3923 316.494 25.4768 316.534 25.5275C316.589 25.5951 316.311 25.8453 316.146 25.8453L308.433 25.8115L300.342 25.656C299.5 27.5089 298.611 29.3583 297.86 31.2788C297.708 31.671 297.817 31.9483 297.428 32.2627C297.215 32.4352 297.134 32.9626 296.711 32.9829C296.467 32.9964 296.437 32.5298 296.535 32.1545L289.398 32.6245C288.887 32.6583 288.508 32.6346 288.126 32.9457L287.778 32.9389C287.697 32.9389 287.609 33.2263 287.619 33.2703C289.621 33.8417 291.751 34.6464 293.441 35.8839C296.38 38.0309 295.69 38.5922 296.129 39.4206C296.738 40.56 297.13 41.6758 296.481 42.991L296.488 42.9809ZM306.493 6.78593L307.879 5.4639C307.47 5.41995 306.952 5.376 306.658 5.44362L306.493 6.78593ZM302.283 5.57548C302.266 5.29485 301.695 5.63634 301.644 5.8764C301.603 6.06236 301.725 6.39033 301.871 6.51544C302.111 6.25509 302.303 5.95079 302.28 5.57886L302.283 5.57548ZM306.526 8.47987L307.402 6.60673C306.773 7.03275 306.323 7.83069 306.526 8.47987ZM304.393 9.42997C305.069 8.55087 305.559 7.76307 305.857 6.80283C305.225 7.63121 304.663 8.49339 304.393 9.42997ZM298.199 9.96419C298.723 9.30487 298.942 8.68612 299.135 7.95918C298.557 8.5644 298.276 9.27782 298.199 9.96419ZM292.278 19.9622C291.355 22.214 290.54 24.361 289.986 26.6568C291.027 24.5098 291.842 22.5251 292.687 20.3814L297.617 7.89155C297.252 7.88479 297.282 8.21952 297.171 8.48663L296.048 11.1341L294.138 15.4315L292.282 19.9656L292.278 19.9622ZM296.944 15.3706C297.705 14.1838 298.097 13.0038 298.638 11.8001C299.041 11.0259 299.382 10.2719 299.429 9.3522L298.117 12.1653C297.641 13.1898 297.171 14.1974 296.948 15.3672L296.944 15.3706ZM319.452 16.3241C318.627 16.3444 317.826 16.4627 316.984 16.598C317.806 16.8245 318.627 16.6926 319.452 16.3241ZM319.997 17.6867C319.402 17.9504 318.976 18.1939 318.414 18.6131C318.56 18.816 318.82 18.9817 318.972 18.9647C319.388 18.9174 319.814 18.1803 319.997 17.6901V17.6867ZM312.579 16.4762C310.922 16.2193 309.431 16.226 307.896 16.5946C309.532 16.7231 311.074 16.6385 312.579 16.4762ZM316.257 19.1101C316.737 19.0865 317.157 18.9276 317.251 18.4373L315.341 18.7145C315.128 18.745 314.773 19.0188 314.573 19.1913L316.257 19.1101ZM311.016 18.1905C311.476 17.7002 306.949 18.2987 307.108 18.63L311.016 18.1905ZM314.195 18.8126L309.992 19.428C310.212 19.6951 314.347 19.3772 314.195 18.8126ZM310.408 18.8701L304.829 19.6545C304.741 19.668 304.575 19.7458 304.511 19.7728C302.317 20.7331 311.186 18.9614 310.408 18.8701ZM314.627 20.564C315.202 20.9326 315.804 20.7804 316.098 20.1076C315.618 20.1414 315.084 20.2496 314.627 20.564ZM309.512 22.6941C311.06 23.0322 312.413 22.9984 313.86 23.0661L314.144 23.0796C314.205 23.0796 314.181 22.8497 314.124 22.853C313.059 22.9038 312.758 22.4135 310.827 22.5792L309.515 22.6908L309.512 22.6941ZM309.461 23.2453C310.249 22.7685 304.633 23.2013 305.069 23.4616C306.601 23.6206 307.94 23.3737 309.461 23.2453ZM314.857 24.9155C314.185 24.6958 313.383 24.6856 312.629 24.8614C313.353 24.9899 314.016 25.1725 314.857 24.9155ZM310.54 24.4084C310.597 24.3982 310.56 24.1818 310.503 24.1818L310.232 24.1886C309.312 24.2123 308.457 24.1277 307.645 24.4016C308.18 24.5199 310.438 24.4219 310.54 24.405V24.4084ZM302.976 24.1818C303.548 24.2697 307.372 24.7972 306.956 23.9553C305.864 24.0432 304.809 24.0939 303.669 24.0331C303.382 24.0195 303.057 23.7693 302.976 24.1784V24.1818ZM296.768 31.4174L297.035 30.3389C297.249 29.4801 298.009 28.7328 298.002 27.7692L295.997 31.2687C296.126 31.4817 296.718 31.6237 296.768 31.4208V31.4174ZM294.736 31.032L294.419 30.322C293.631 30.464 292.965 30.5586 292.275 30.8967C293.218 31.1436 293.85 31.0827 294.736 31.032ZM289.932 31.0016L290.104 29.9467C290.026 29.923 289.675 30.1123 289.627 30.2645L289.316 31.2315L289.928 31.0016H289.932ZM283.957 33.3041C282.967 33.1148 282.03 33.0708 281.029 32.9897L279.372 33.1114C280.951 33.3582 282.382 33.3548 283.957 33.3041ZM291.994 35.6641L293.015 36.5297L294.909 38.0005C294.719 37.1282 292.731 36.0023 291.998 35.6641H291.994ZM290.398 36.8205C290.219 36.0361 289.482 35.7081 288.745 35.5559L290.398 36.8205ZM273.029 34.7276L278.399 33.5036C276.925 33.3481 275.623 33.906 274.196 34.1054C273.729 34.1697 273.205 34.1697 273.029 34.7309V34.7276ZM288.616 36.8205C287.609 36.195 286.486 35.6472 285.269 35.5154C286.331 36.1104 287.345 36.6075 288.616 36.8205ZM292.998 37.2702C293.536 38.2338 293.864 38.9371 293.949 40.019C294.523 39.8905 293.435 37.1755 292.998 37.2702ZM285.932 36.3911C284.16 35.6337 281.814 35.2314 280.191 35.8129L285.932 36.3911ZM272.58 34.3827C271.478 34.4334 270.568 34.8121 269.821 35.4139C270.882 35.1773 271.755 34.8087 272.58 34.3827ZM292.66 40.4045C292.934 39.6742 292.765 38.8762 292.211 38.413L292.66 40.4045ZM280.407 36.4858C279.268 36.3809 278.064 36.3674 276.881 36.8239C278.061 36.7799 279.146 36.7021 280.407 36.4858ZM277.425 35.9211C276.58 35.9076 275.717 36.2017 274.906 36.648C275.785 36.4993 276.549 36.2322 277.425 35.9211ZM272.303 40.4315L276.012 38.8052C277.621 38.0986 279.403 37.7604 281.198 37.7875L283.991 37.8314L284.268 37.8382C284.329 37.8382 284.295 37.6117 284.238 37.6117C283.014 37.6015 283.518 37.4866 282.064 37.5339C279.944 37.6049 277.79 37.703 275.839 38.5246C273.844 39.3665 269.324 41.3072 268.485 43.1331C269.713 42.0342 270.849 41.1348 272.303 40.4315ZM296.322 42.1559C296.538 41.6183 296.4 40.8981 296.136 40.3741C295.94 42.3655 295.105 43.9716 293.979 45.6249C294.659 45.4221 296.075 42.7747 296.322 42.1593V42.1559ZM270.872 37.4798C271.789 37.0876 272.62 36.6886 273.516 36.2525C272.641 36.3066 270.125 37.3277 269.456 38.085L270.872 37.4798ZM292.102 44.4145C292.491 44.4956 292.877 44.2285 293.09 43.8566C293.746 42.8457 294.439 41.8685 294.388 40.5803C293.918 41.8144 293.428 42.7814 292.765 43.8701C292.549 44.0798 292.353 44.2353 292.102 44.4145ZM287.075 40.4349C286.53 39.6944 286.047 39.2211 285.161 39.2414C286.26 39.8838 286.547 41.0029 286.027 42.1728C286.537 41.7062 286.879 41.1314 287.075 40.4383V40.4349ZM285.617 41.6251C285.905 40.9725 285.797 40.2287 285.171 39.806C284.363 39.2617 283.413 38.9912 282.392 38.9641C279.345 38.8897 276.407 39.6911 273.692 41.0638C272.499 41.6656 268.472 44.1406 270.257 45.7129C270.71 46.1118 271.471 46.5683 272.14 46.6393C276.133 47.0721 283.913 45.4694 285.617 41.6251ZM288.207 40.232C288.289 41.4695 287.961 42.4061 287.261 43.4069C288.038 43.0384 289.245 41.0232 288.207 40.232ZM289.908 43.0113C290.544 42.6462 291.051 42.0038 290.966 41.1821L289.908 43.0113ZM268.022 37.615C267.292 37.7909 266.788 38.1932 266.436 38.7613C267.042 38.4231 267.559 38.0614 268.022 37.615ZM265.665 42.5414C266.849 40.8576 268.211 39.6099 269.983 38.5212C268.61 38.8593 265.909 40.9894 265.665 42.5414ZM293.81 44.8169L290.831 47.7077C291.277 48.0086 293.969 45.1955 293.81 44.8169ZM261.054 45.5945C261.3 44.9386 261.307 44.3469 261.365 43.674C261.453 42.6394 262.061 41.8009 262.507 40.8406C261.026 42.0139 260.756 43.8532 261.054 45.5945ZM282.395 46.0036C281.8 45.9732 281.391 46.122 280.938 46.2944L279.109 47.0991C280.35 46.9436 281.377 46.5311 282.399 46.0036H282.395ZM268.397 45.4627L268.976 43.5827C268.516 43.9851 268.269 44.428 268.069 45.1245L268.397 45.4627ZM266.849 46.6258L267.129 44.4618C266.575 45.1076 266.24 45.9191 266.849 46.6258ZM275.241 47.4474C276.329 47.5353 277.296 47.2682 278.152 46.8219C277.094 46.8523 276.171 47.0349 275.241 47.4474ZM275.102 47.1329L273.06 47.1465C271.812 47.2783 269.848 46.4533 269.243 45.0907C268.249 46.9808 272.255 47.5184 273.398 47.5285C274.037 47.4879 274.602 47.4338 275.099 47.1295L275.102 47.1329ZM280.083 47.7111L274.963 48.6308C273.777 48.8438 272.661 49.0027 271.599 49.405C274.463 49.1616 277.831 48.5936 280.079 47.7111H280.083ZM260.519 46.3046C260.313 44.6207 260.739 44.1102 260.428 43.7552C259.988 45.0366 259.955 46.3451 260.506 47.5556C260.587 47.1194 260.567 46.7204 260.516 46.3046H260.519ZM269.496 47.3087C268.935 46.8354 268.597 46.4432 268.265 45.8075C268.164 45.8954 268.086 46.406 268.232 46.5514C268.56 46.8861 269.104 47.2073 269.5 47.3087H269.496ZM271.63 52.8606C275.42 53.1108 282.013 51.7549 285.415 49.777L281.969 50.7372L277.225 51.8834C275.379 52.3297 273.611 52.5394 271.63 52.8606ZM271.126 48.0965L268.955 47.6604C269.581 48.2758 270.369 48.2115 271.126 48.0965ZM276.739 49.7939C274.47 50.0914 272.472 50.389 270.318 50.5174C270.061 50.5343 269.75 50.6392 269.537 50.7507C271.41 51.2545 275.285 50.3382 276.739 49.7939ZM262.152 49.6958L261.037 47.3324C261.125 48.2386 261.297 49.1887 262.152 49.6958ZM264.638 50.4228C264.212 49.6248 263.664 48.8979 263.065 48.2149C263.187 49.2258 263.823 49.9156 264.638 50.4228ZM278.97 53.2798C279.886 53.0296 280.722 52.8267 281.53 52.465L274.977 53.5706C276.34 53.814 277.604 53.5672 278.97 53.2832V53.2798Z" fill="black"/>
<path d="M6.1807 30.4504L7.64473 29.1081C7.73264 29.027 7.83069 28.7261 7.83408 28.6145C7.83746 28.5029 7.60078 28.2967 7.51625 28.3372C7.27281 28.5502 6.81297 28.9053 6.59996 28.4522C7.51625 27.7996 8.50016 27.3161 9.22034 26.4032C8.0268 26.41 4.50366 30.562 4.07764 29.8452C4.03031 29.7675 4.04383 29.5206 4.11145 29.4564L5.43347 28.2088C6.76564 26.951 7.95918 25.7033 9.36911 24.5098L9.69031 23.9249C11.0056 23.1506 11.0969 23.2689 11.3437 22.0821C11.8373 22.6299 12.1011 21.8353 13.4231 20.75L16.9597 17.8524L19.5734 15.729C20.4389 15.0257 21.3146 14.407 22.1126 13.5245L10.1603 13.9607L5.48757 14.1365C4.66258 14.1669 3.67867 13.7713 2.98892 14.3292C2.44456 13.6969 0.378688 14.664 -0.00337982 13.609C0.987291 13.3555 1.9171 13.1695 2.87058 13.0072C3.15797 12.686 3.37775 11.9929 3.39804 11.5668L3.09373 11.2761C3.01597 11.2017 3.20869 10.9413 3.31351 10.9008C3.71248 10.7385 3.74291 10.3496 3.85787 9.98109L4.67948 7.37424L3.72262 7.28633C3.63133 7.27619 3.46904 7.21533 3.39804 7.17475C3.30336 7.12404 3.49609 6.7724 3.6009 6.75549L4.51381 6.60334C4.73358 6.56615 5.04803 6.45457 5.1055 6.30242C5.19003 6.07927 5.1055 5.72425 4.97364 5.52138C4.3008 4.45294 4.34475 5.19003 2.91453 4.71667C3.4048 4.35151 3.70572 4.35489 4.14526 4.26022L3.84434 3.78686C3.59414 3.39127 4.97026 3.75305 5.71073 3.71248C12.1856 3.34393 18.5523 3.41832 25.0406 3.37098L31.7488 3.32027C30.6263 4.02354 29.453 3.38789 28.3339 3.90182L33.1925 4.02354C34.3421 4.05397 35.5864 3.45889 35.6506 3.60428L35.8704 4.11145L38.7849 4.08778L39.7519 4.07426L41.3241 4.02354C41.4087 4.02354 41.6115 4.09793 41.6758 4.14526C42.139 4.46647 40.0089 4.55776 39.6065 4.62876C39.0622 4.72682 39.0486 5.44361 38.8492 5.69044L37.3987 7.48582C36.9422 8.05046 36.3978 8.51368 35.8636 9.03775C35.61 9.28796 35.397 9.78498 35.1705 10.0318L32.0463 13.4569C33.1587 13.8119 33.6321 12.2329 33.8214 12.6353L34.0446 13.1188C35.5526 12.9971 37.1079 12.6015 38.6497 12.402L42.5481 11.8982L44.5261 6.08265L44.9183 4.92968C44.9487 4.83839 45.2699 4.68286 45.3274 4.76063C45.3984 4.8553 45.4322 5.0886 45.3916 5.22046L45.1482 6.05222C46.3722 5.97445 46.4736 4.30417 47.1769 5.62281L47.9241 5.35571C48.4008 5.54505 48.8302 5.53829 49.3577 5.37599C49.919 5.20355 50.8894 5.33542 51.3019 4.93306L52.5563 3.71248C52.8673 4.08102 52.6509 4.31432 52.4886 4.83839C52.5765 4.91954 53.3069 4.82149 53.4117 4.59833L54.1386 3.06668C54.1758 2.98553 54.3009 2.85367 54.3516 2.80633C54.4226 2.74547 54.6356 3.03963 54.6018 3.12754C54.1826 4.23655 53.9763 4.3346 54.3178 4.93983C54.3685 5.03112 54.0237 5.19341 53.9865 5.30161L51.2038 13.2473L49.2157 19.198L46.3992 27.9011L45.8853 29.7404L46.7576 29.7911C46.832 29.852 46.646 30.3084 46.4973 30.3118C46.1287 30.322 45.5573 30.2848 45.1753 30.2543L44.7087 30.9508L44.4415 30.3794L42.6766 30.5519C42.4602 30.8562 42.2641 31.1131 41.9226 31.4411L41.9057 30.5688C40.8136 30.6094 39.6302 30.5113 38.5516 30.6533C38.2169 30.6973 38.0816 30.7378 37.7773 30.6939L37.0673 30.5924C37.1654 28.7666 37.6658 28.6111 37.9802 26.7042C35.6337 26.8259 33.5814 27.1674 31.387 27.6069C30.4944 27.7861 29.6187 27.7996 28.7227 27.9687L25.2976 28.6111L24.9426 29.2704L24.0635 28.4691C24.3171 28.2493 24.6856 27.8098 24.804 27.448L25.5072 25.2503L26.2917 22.9342C25.8386 22.9714 25.6087 22.9477 25.4971 22.5352L26.5385 22.1768C26.6737 21.7745 26.809 21.4194 27.2789 21.2335L27.4209 21.9807L34.7377 20.4964C36.1882 20.2022 37.5136 20.023 38.8999 19.4787C39.1738 19.3705 39.6099 19.3671 39.7654 19.2014C39.9649 18.9884 40.0968 18.4441 40.1137 18.0992L37.6556 18.4271C35.5492 18.7112 33.4799 19.0358 31.4411 19.6072L30.677 20.1143C30.5688 19.7458 30.6398 19.5497 30.7987 19.2521C30.4234 19.2521 30.0954 19.3874 29.7641 18.9884L30.9306 18.6672L32.0971 15.7696L32.6144 14.4848C32.4724 14.2988 32.0666 14.0013 31.7657 13.8288L24.8682 21.1997L20.9359 25.4869L18.4677 28.0938C17.7306 28.8715 17.2099 28.2628 17.1051 29.6931L16.128 30.5147C15.6039 30.3625 15.259 30.7987 14.8871 31.1098C14.0046 30.7919 13.8018 31.8367 13.3994 31.2822C12.9632 30.677 14.15 30.278 14.0046 29.8926L12.4899 31.1909C12.4223 31.2484 12.2262 31.2754 12.1552 31.2856C12.0842 31.2957 12.1247 30.9373 12.1822 30.8934L13.298 29.9906C13.1222 29.8723 12.5507 29.7032 12.3073 29.7708L10.921 30.8934C10.8568 30.9441 10.6235 30.9948 10.5491 30.9948C10.4511 30.9948 10.4071 30.7142 10.4714 30.6432C10.5998 30.4978 10.7892 30.2746 10.8534 30.0278L9.36573 31.0726C9.1561 31.218 8.79432 31.2822 8.69964 31.0117L10.4815 29.6254C9.98785 29.524 9.25753 29.3651 8.91266 29.6254L7.75969 30.5012C7.68869 30.5553 7.38777 30.3389 7.32014 30.393C6.59658 30.988 6.73521 31.1267 5.95755 31.5764C5.54505 31.2044 5.82568 30.7784 6.17056 30.4606L6.1807 30.4504ZM51.9307 7.00908L52.9485 5.54843C52.0694 5.54843 51.7955 6.3058 51.9307 7.00908ZM48.482 19.4212L52.1979 7.96932L52.7625 6.69801C52.2858 7.08684 52.0863 7.5602 51.8023 8.0978C51.2139 9.21695 50.5851 10.3158 50.3957 11.5668C50.132 13.3183 48.509 17.5041 48.4786 19.4212H48.482ZM46.4567 8.23981C46.9875 7.58725 47.0991 7.11389 47.3865 6.42414L46.7509 6.52896L46.4567 8.23643V8.23981ZM34.1562 5.52138C34.9507 5.53152 35.6946 5.75806 36.4181 5.24751C35.7825 5.09198 35.2212 5.06155 34.6058 5.09874C32.8578 5.20017 31.1977 5.2306 29.4023 5.43009C30.9542 5.60591 32.496 5.50109 34.1595 5.52138H34.1562ZM37.2431 5.74454C37.3277 5.59915 37.4494 5.44023 37.3784 5.44361C37.331 5.44361 37.0876 5.4098 37.047 5.43009L35.9887 5.95755C36.0935 6.04546 36.4722 6.22127 36.648 6.21451C36.8239 6.20775 37.0605 5.93388 37.2465 5.74454H37.2431ZM47.1363 11.178L48.58 8.13499C47.8768 8.20262 47.843 8.63202 47.7314 9.14933C47.5792 9.85937 47.1972 10.4544 47.1363 11.178ZM18.5455 4.72343L25.0711 4.46309C25.9907 4.4259 26.8834 4.57128 27.7388 4.28389C23.7321 4.11821 19.881 4.17231 15.915 4.29403C13.6936 4.36165 11.577 4.29741 9.4063 4.62538C12.5136 4.75048 15.4315 4.84516 18.5455 4.72343ZM34.1697 7.74278C34.4199 7.58387 34.7614 7.15447 34.9473 6.86369L33.4123 7.11389C33.1046 7.16461 32.8612 7.2559 32.6651 7.52977L34.1731 7.7394L34.1697 7.74278ZM27.2181 6.37004C28.7565 6.50191 29.923 6.54248 31.2585 6.39371C29.8385 6.14689 28.4928 6.1638 27.2181 6.37004ZM44.3063 11.391L44.6884 9.34206C44.2556 9.93037 44.1237 10.5863 44.0527 11.3031L44.0257 11.5736C44.0223 11.6209 44.2995 11.4384 44.3097 11.3944L44.3063 11.391ZM48.0763 13.6868C48.6477 12.855 49.0331 12.074 49.1684 11.0698C48.8336 11.6209 48.6071 12.1754 48.3434 12.7976C48.1878 13.0647 48.0526 13.3487 48.0729 13.6868H48.0763ZM25.9671 7.43848C24.9764 7.31676 23.9722 7.3269 22.9781 7.57711C23.9959 7.66502 24.9324 7.60416 25.9671 7.43848ZM28.841 9.43673C29.2941 9.5483 29.6762 9.66664 29.8858 9.1189L27.3432 9.20005C27.7422 9.7816 28.3237 9.30824 28.841 9.43673ZM47.4778 17.8152L48.8607 13.511C48.5361 13.8761 48.411 14.3056 48.2724 14.7721C47.8869 15.7899 47.5319 16.74 47.4812 17.8152H47.4778ZM7.62106 5.82906L9.92023 5.60253C8.9228 5.48081 8.13838 5.518 7.31 5.50448C7.29309 5.70396 7.2559 5.85949 7.31 5.85273L7.62106 5.82906ZM26.978 9.39953L27.0389 9.13581C25.4667 9.25077 24.1345 9.33191 22.7448 9.60917C24.2731 9.69031 25.5174 9.47392 26.9814 9.39953H26.978ZM32.3473 10.2178L30.4031 12.0503L30.5992 12.2566L32.5434 10.424L32.3473 10.2178ZM25.0474 12.2295C25.7541 11.7325 26.2545 11.222 26.7413 10.6167C26.3187 10.6404 26.1496 10.9177 25.9096 11.1712C25.585 11.5195 24.9798 11.6446 25.0474 12.2295ZM19.1439 9.91347L20.6655 9.63621C19.712 9.54154 18.9039 9.70722 17.947 9.84246C18.2547 9.96418 18.7179 9.99123 19.1439 9.91347ZM23.4616 12.1788C24.006 12.1653 24.5233 11.9083 24.6586 11.3843C22.9308 11.3775 21.4397 11.6243 19.8066 11.4992C21.433 11.2422 23.0153 11.1611 24.7059 11.0563C25.0102 11.0394 25.2976 10.9041 25.4937 10.6573L20.0535 11.1712L13.3115 11.9388C14.6572 12.1213 15.8879 11.9962 17.2133 12.0943C19.3231 12.2498 21.3586 12.2228 23.465 12.1754L23.4616 12.1788ZM41.4256 15.1948C41.7536 15.0798 41.5642 14.948 41.3208 14.9412L38.5685 15.401C39.5389 15.5194 40.3808 15.2759 41.429 15.1982L41.4256 15.1948ZM34.3354 14.7857L37.2161 14.1872L34.1054 14.363L33.8721 14.647C33.8248 14.7045 33.9803 14.8634 34.0547 14.8465L34.3354 14.7823V14.7857ZM16.2666 9.96756C15.0257 9.94052 13.7781 10.1535 12.5338 10.4105C13.8018 10.397 15.0021 10.2955 16.2666 9.96756ZM6.67773 8.74022L6.0387 8.32096L5.58901 9.4604L6.68111 8.74022H6.67773ZM45.7298 19.1778C46.1794 18.4643 46.2674 17.8185 46.4364 17.051C46.3722 17.0815 46.1456 17.2505 46.1253 17.3148C45.9901 17.7949 45.7298 18.6807 45.7264 19.1778H45.7298ZM26.4201 16.0604C27.2958 15.2117 28.2189 14.5389 28.841 13.5008C27.0524 15.0697 25.3382 16.5946 23.8978 18.5151C24.8209 17.7814 25.5579 16.9327 26.4201 16.0604ZM10.2922 13.4197C14.593 13.5313 18.6266 13.2878 22.7347 13.0207C21.6832 12.899 20.7026 12.8449 19.668 12.8889L17.3384 12.9937C14.948 13.0985 12.5677 13.0613 10.2888 13.4197H10.2922ZM33.2331 16.6588C33.72 16.5337 33.9634 16.3173 33.9093 16.1483C33.8417 15.9353 33.7572 15.729 33.8519 15.6884L34.2813 15.5126C34.2745 15.4518 33.7673 15.4348 33.6794 15.5498C33.5036 15.7831 33.2771 16.4019 33.2297 16.6622L33.2331 16.6588ZM37.659 17.237L40.0596 16.6487C39.779 16.3748 36.8577 17.122 36.5703 17.3012C36.9354 17.3621 37.2803 17.3283 37.659 17.237ZM6.26861 10.3293C6.33285 10.2448 6.32609 9.97095 6.28552 9.88304C6.13675 9.54492 5.45376 10.2888 5.39966 10.7283C5.70396 10.7047 6.11984 10.5322 6.26861 10.3327V10.3293ZM41.6893 19.4111C41.6792 19.455 41.8888 19.5835 41.926 19.5226C41.9666 19.4516 42.0612 19.2893 42.0917 19.2183L42.8254 17.5717C42.5481 17.7171 42.3283 17.9639 42.1931 18.2649L41.6893 19.4077V19.4111ZM4.94321 13.2777L16.5743 12.5305C14.5828 12.3546 12.6995 12.4865 10.7013 12.544C8.70979 12.6015 6.72168 12.801 4.94321 13.2777ZM32.6245 17.778C33.7741 17.6934 34.8121 17.3148 35.8298 16.8482L35.2821 16.8617C34.403 17.2133 33.3853 16.9597 32.6245 17.778ZM22.1667 19.3333C23.6544 18.0282 24.973 16.7129 26.2984 15.2252C25.2739 15.9082 22.5792 18.1905 22.1667 19.3333ZM47.1532 22.1396L47.7652 19.9453C47.6807 19.6139 46.548 22.7009 47.1532 22.1396ZM23.6814 21.1016C24.7296 20.1448 25.5715 19.1744 26.3525 18.1702C25.2435 19.0155 24.3238 19.9487 23.6814 21.1016ZM39.5558 21.4837C39.8534 21.3146 39.7485 21.2166 39.4645 21.2402L37.4764 21.6257C38.1898 21.7778 38.7748 21.6054 39.5558 21.4837ZM18.6774 19.5903C19.5936 19.171 20.2124 18.4204 20.5978 17.6461L18.6774 19.5903ZM38.8356 22.4744C38.271 22.2106 32.7969 23.1404 32.5095 23.5124C34.7309 23.2182 36.692 22.9139 38.8356 22.4744ZM19.2014 20.3848C18.346 20.8818 17.9098 21.6223 17.3249 22.2952L17.095 22.5589C17.0679 22.5893 17.2032 22.6164 17.2404 22.5961C17.5075 22.4608 19.1034 20.7128 19.2014 20.3848ZM12.9869 21.744C14.0215 21.2741 14.7688 20.5742 15.4856 19.7796C14.5355 20.3578 13.697 20.9731 12.9869 21.744ZM38.8356 24.9764C38.3386 24.8209 37.703 24.9527 37.2465 25.2469C37.8112 25.3957 38.3555 25.4667 38.8356 24.9764ZM18.4948 26.1294L20.9934 23.3365C21.4194 22.8632 21.859 22.4777 22.0585 21.8319C20.1786 23.6713 18.4305 25.5647 16.7805 27.6001C17.4399 27.1437 17.9267 26.6568 18.4948 26.1294ZM27.519 24.733C27.9281 24.6146 28.0904 24.3475 28.2189 23.9553L28.3203 23.6544C28.3406 23.5935 28.1513 23.5631 28.087 23.5665C28.0431 23.5698 27.8875 23.6679 27.8639 23.722L26.7312 26.0381C27.1099 26.0989 27.4446 25.7642 27.5427 25.4802C27.6069 25.2942 27.5596 24.9696 27.5258 24.7296L27.519 24.733ZM18.4001 24.6045C17.6765 25.3957 17.1187 25.9975 16.5811 26.8462C16.7467 26.8969 18.7484 24.689 18.4001 24.6045ZM10.7723 24.1582C10.0758 24.7668 9.48745 25.2875 8.92956 25.8994C9.4063 25.9941 11.249 24.5909 10.7723 24.1582ZM12.2228 27.5258L10.9379 28.1208L9.62607 29.0608C10.823 29.6423 11.4045 28.699 12.2228 27.5291V27.5258Z" fill="black"/>
<path d="M177.749 27.9112L176.042 28.5502C177.151 28.7464 178.368 28.6382 179.477 28.4826L179.697 28.7565C179.751 28.8241 179.524 28.9526 179.416 28.9729L176.123 29.4902L174.263 29.8046C174.801 29.9737 175.67 29.7945 176.12 29.7303C176.245 29.7134 176.42 30.0278 176.529 30.1461C176.715 30.349 177.296 30.2881 177.631 30.2746L177.966 30.2611C178.05 30.2577 178.145 30.5383 178.07 30.5823L177.746 30.775C177.289 31.0489 176.83 30.9238 176.377 30.9813L171.832 31.5594L161.75 32.8477L150.044 34.4334L146.467 34.9913C145.872 35.086 144.956 35.2516 144.462 35.3598C144.354 35.3835 143.958 35.0691 144.05 35.0048L144.462 34.7242L144.814 34.4841C144.905 34.4233 144.591 34.1223 144.489 34.1562C143.962 34.332 144.124 34.758 143.553 35.3531C143.485 35.4241 143.157 35.2009 143.198 35.1029L144.023 33.152L146.944 24.5977L150.227 15.3165C149.632 15.0764 149.057 15.0798 148.77 15.7324L148.235 15.2455L145.852 15.4213C145.75 14.6166 146.775 14.9006 147.137 14.718C147.245 14.664 147.285 14.4577 147.36 14.292L147.647 13.6462C147.319 13.6564 146.839 13.582 146.896 13.3893C147.076 12.9971 147.546 12.9869 147.897 12.9125L148.266 12.3005L147.667 12.0605L148.34 11.79C148.499 11.7258 148.621 11.364 148.648 11.1983L147.113 11.3335C147.126 10.61 148.719 11.0698 149 10.495C149.155 10.1806 149.267 9.74441 149.334 9.39953L147.4 9.60578C147.478 8.86194 148.205 8.8687 148.722 8.83151L149.652 8.7605L150.207 7.77997C150.251 7.70221 150.622 7.5602 150.646 7.64811L150.785 8.13161L151.302 7.5061C151.353 7.75969 151.356 7.86112 151.353 8.15528L155.427 7.7935L157.642 7.60754L164.495 7.21533L173.435 6.99217L183.102 6.96512C183.555 6.96512 183.977 6.95498 184.4 6.99893L185.959 7.15108C185.803 7.88817 184.457 7.02598 183.785 8.1688L184.069 8.55425C184.136 8.64554 183.802 8.78417 183.687 8.80108L183.237 8.86532C183.125 8.88222 183.115 9.20343 183.044 9.2981L182.317 10.2583L183.328 10.5457C182.977 11.0833 182.392 11.4147 181.837 11.3234C181.871 11.719 181.776 12.0402 181.573 12.4087L181.232 11.8678C181.032 12.0537 180.884 12.2634 180.725 12.6387L182.016 12.6184C182.087 12.6184 182.283 12.7367 182.337 12.7807C182.392 12.8246 182.253 12.9159 182.158 13.0106L181.614 13.5617C179.403 13.7882 177.235 13.8525 174.977 13.9708L162.889 14.6031L160.225 14.8127L158.328 19.0188L164.292 18.1702L172.495 17.2336L179.66 16.5303L180.823 16.5405C180.951 16.5405 181.286 16.6318 181.327 16.7467C181.496 17.2066 180.312 17.3114 180.251 18.0282L181.458 18.3223L180.349 19.2724L179.413 19.6038L180.278 20.1042L178.953 20.3848C179.852 20.5843 180.451 20.1955 181.347 20.2834C181.269 20.5742 180.992 20.6993 180.694 20.7703L180.255 20.8785C180.146 20.9055 180.211 21.2301 180.214 21.4296C179.338 21.5648 178.503 21.5615 177.688 21.9773C178.229 22.187 180.363 21.4702 180.41 22.0754L178.246 22.3391C177.844 22.3864 177.32 22.6603 176.884 22.64C175.781 22.5893 174.838 22.8463 173.746 22.9748L164.184 24.0973L161.209 24.4963L155.988 25.301L155.109 27.0997L167.2 26.0617L173.323 25.612C174.415 25.5309 175.504 25.5038 176.563 25.3314C176.961 25.2638 177.164 25.1319 177.448 25.5208C178.152 25.612 179.653 25.1116 179.954 25.4126C180.485 25.9434 178.794 25.683 178.348 26.5689C178.314 26.6399 178.354 27.0152 178.432 27.0051L178.821 26.9577C178.98 26.9374 179.467 27.1707 179.352 27.2857C178.923 27.6509 178.273 27.732 177.749 27.9281V27.9112ZM182.976 8.25671L183.616 7.51963L181.573 7.8476L182.976 8.25671ZM181.113 8.37843C179.91 8.13837 178.841 8.04708 177.584 8.23981C178.182 8.44268 180.671 8.86194 181.113 8.37843ZM176.322 7.81379C175.284 7.60416 174.382 7.61092 173.391 7.81379C174.402 7.92536 175.362 7.8645 176.322 7.81379ZM180.187 10.0622L181.719 10.3564L182.246 9.52126C182.162 9.46716 181.783 9.37249 181.715 9.46716L181.485 9.79175L180.184 10.0622H180.187ZM173.601 9.15609L179.179 8.97351C178.361 8.69626 177.56 8.77741 176.745 8.87884C175.667 9.01409 174.588 8.8687 173.601 9.15271V9.15609ZM161.253 8.23981C164.982 8.206 168.654 8.15528 172.35 7.83407C167.488 7.48582 162.159 7.80026 157.659 8.28376C158.967 8.43253 160.052 8.24995 161.253 8.23981ZM174.453 8.39872C172.867 8.21276 171.268 8.27362 169.672 8.44944C171.281 8.54749 172.809 8.55087 174.453 8.39872ZM162.828 8.75036C161.726 8.56101 160.58 8.59821 159.44 8.82474C160.597 8.91603 161.662 8.86532 162.828 8.75036ZM171.072 11.2963L173.766 11.0259C172.546 10.7689 171.396 11.0631 170.206 11.1645C169.608 11.2152 169.07 11.2794 168.499 11.3944C169.398 11.5026 170.199 11.3843 171.072 11.2963ZM169.31 12.1788C168.015 12.0706 166.754 12.1382 165.479 12.429C166.815 12.473 168.018 12.3851 169.31 12.1788ZM154.551 11.4755C155.65 11.3944 156.512 11.2963 157.51 11.107C157.341 10.8568 154.146 10.9515 154.551 11.4755ZM176.306 17.3587C175.119 17.3418 173.935 17.4568 172.722 17.6968C173.946 17.9335 175.082 17.6224 176.306 17.3587ZM158.632 16.6115L159.697 14.9615C159.488 14.8837 159.282 14.7958 159.231 14.8803L159.004 15.259L158.636 16.6115H158.632ZM172.201 17.778C171.061 17.6833 169.898 17.8625 168.816 18.133C170.03 18.0992 171.065 17.9741 172.201 17.778ZM156.13 19.2285C156.556 18.6943 158.203 15.303 158.176 15.0393C158.102 14.3089 155.914 19.3874 156.13 19.2285ZM178.081 20.2563C177.08 20.1414 176.072 20.3104 175.068 20.5539C176.096 20.5606 177.049 20.4896 178.081 20.2563ZM152.022 19.3975L153.753 15.7121C153.571 14.7519 151.863 19.3671 152.022 19.3975ZM170.257 19.4212L170.473 19.1676L168.404 19.3265C167.501 19.3975 166.649 19.455 165.787 19.7627L170.253 19.4178L170.257 19.4212ZM164.992 20.3375C166.345 20.5336 167.535 20.2428 168.762 19.8777C167.464 19.9622 166.199 20.1076 164.992 20.3375ZM177.131 21.8117L176.843 21.8488C176.16 21.9401 175.511 22.0314 174.879 22.1464C175.345 22.6299 178.791 21.5919 177.131 21.8083V21.8117ZM172.583 22.4507C171.433 22.3662 170.456 22.4744 169.415 22.7989C170.527 22.7584 171.558 22.6265 172.583 22.4507ZM166.477 23.1134C166.585 23.0965 166.318 22.9308 166.233 22.9477L161.476 23.8471C163.156 23.7998 164.729 23.4109 166.473 23.1168L166.477 23.1134ZM178.01 25.8453L175.731 26.1801C176.921 26.1327 177.651 26.9205 178.01 25.8453ZM148.08 24.0601C148.722 22.8023 149.257 21.6054 149.561 20.2225C148.912 21.4465 148.428 22.6941 148.08 24.0601ZM173.171 27.2789L164.867 27.6576L164.884 28.0296L173.188 27.6509L173.171 27.2789ZM175.2 28.5807C174.365 28.3846 173.59 28.5266 172.813 28.6753C173.621 28.7835 174.392 28.9188 175.2 28.5807ZM148.012 24.6755C147.711 24.8986 147.617 25.115 147.431 25.3957L147.732 23.4684L146.149 28.6855C146.92 27.3229 147.448 26.0719 148.012 24.6755ZM154.021 27.2384C154.511 26.6433 154.795 26.0279 154.852 25.3348C154.416 25.9333 154.146 26.508 154.021 27.2384ZM163.491 30.7987L168.38 30.1563C169.821 29.9669 171.187 29.7303 172.61 29.3989C170.659 29.3042 168.901 29.737 167.051 30.0143L164.725 30.3625C164.279 30.4302 163.853 30.5282 163.491 30.7987ZM161.8 27.5663C160.549 27.5562 159.346 27.634 158.118 27.8571C159.38 27.9416 160.57 27.8064 161.8 27.5663ZM168.603 29.1318C168.471 28.8681 164.827 29.1149 164.61 29.3685C165.956 29.4733 167.261 29.3144 168.603 29.1318Z" fill="black"/>
<path d="M250.031 30.1225L249.385 29.0135C249.338 28.9323 249.463 28.7024 249.548 28.6618C249.997 28.4556 250.068 29.1927 250.697 29.5916L254.856 26.6839L263.948 20.4423L265.064 19.6579C265.811 19.1338 266.514 18.5894 267.227 18.0282L269.858 15.9589C268.303 15.9589 267.021 16.1178 265.598 16.2429L260.475 16.6892C259.752 16.7535 258.93 16.5777 258.301 16.8549C258.088 16.9496 257.838 17.1153 257.693 17.0916C257.547 17.0679 257.338 16.7839 257.338 16.6351C257.338 16.0096 258.934 16.0705 258.68 14.762C258.389 14.7586 257.919 14.7282 257.818 14.6809C258.007 13.5008 258.883 15.2185 259.562 12.331L258.639 12.3377C258.528 12.3377 258.332 12.2498 258.267 12.1822C258.183 12.0977 258.393 11.8103 258.514 11.7832L259.532 11.5499C259.799 11.4891 260.391 11.0394 260.097 10.7621C259.539 10.2347 258.893 10.4781 258.707 9.8357C258.673 9.72412 258.984 9.57535 259.106 9.57873L260.526 9.61593C260.658 9.61931 260.925 9.35896 260.915 9.24738C260.878 8.8146 259.988 9.12228 259.83 8.63878L261.314 8.55425C261.111 8.06399 260.729 8.29391 260.384 8.29391H259.167L259.921 7.57711L261.966 7.39791L265.307 7.22547L270.622 7.06317L276.086 7.0057H277.587L285.695 6.96174L291.639 7.09699C292.958 7.12742 292.873 6.55939 293.238 7.21533C293.309 7.34381 293.005 7.63797 292.843 7.60077C292.143 7.4351 291.933 8.22628 291.605 8.49339C291.058 8.93632 290.31 9.51787 289.793 10.025C289.394 10.4173 288.86 10.7452 288.427 11.0901L285.093 13.7544C284.627 14.1264 284.082 14.478 283.792 14.9885C284.437 14.877 286.716 12.5643 286.787 13.2675C286.797 13.3656 286.747 13.6665 286.635 13.7409L283.224 16.1178L282.459 16.8989L278.95 19.5429L281.851 21.0678C283.95 22.1701 286.469 23.9215 288.19 24.7397C288.332 24.8073 288.461 25.1454 288.353 25.2638C288.207 25.4159 287.94 25.3923 287.649 25.2841L286.605 26.2004C285.563 27.1133 284.086 27.8605 283.798 28.7328C283.22 28.5841 282.28 29.382 282.324 30.0008L281.371 30.3017C280.853 30.4132 280.833 30.0109 280.566 29.8283C277.871 27.9721 275.038 26.4337 272.049 24.8479C268.008 27.7557 264.276 30.8832 260.465 34.048L258.67 35.539L257.142 36.6785C257.125 36.8103 257.169 37.1282 257.074 37.1282L256.438 37.1451L255.623 37.8551C255.536 37.9329 255.18 37.9227 255.096 37.8416C254.781 37.5373 255.891 36.9794 255.931 36.5737L251.779 32.4994C251.417 32.1478 251.147 31.7589 251.062 31.3397L250.203 31.8063C250.153 31.7691 250.001 31.4884 249.933 31.3464L249.01 31.813C248.946 31.8468 248.709 31.5493 248.753 31.4918C249.392 30.6668 249.534 31.0557 250.034 30.1157L250.031 30.1225ZM281.949 8.77065C283.426 8.61849 284.819 8.5813 286.294 8.59821C286.73 8.60497 287.119 8.55763 287.467 8.30743C286.49 8.1519 285.6 8.21614 284.63 8.30067L281.178 8.60159L281.949 8.76726V8.77065ZM279.913 7.85098L282.071 7.74278C281.144 7.55682 280.275 7.61092 279.356 7.62782C278.027 7.65149 276.755 7.60416 275.45 7.81717C276.968 7.95241 278.389 7.92874 279.913 7.85098ZM282.622 10.7385C283.23 11.0529 283.809 10.823 284.025 10.2651C283.508 10.2685 283.044 10.4274 282.622 10.7385ZM268.485 9.63283C267.258 9.51787 266.031 9.5855 264.796 9.76132C266.047 9.85937 267.227 9.89994 268.485 9.63283ZM270.96 10.424C268.847 10.2347 266.656 10.3158 264.543 10.8128C266.737 10.7926 268.766 10.6979 270.96 10.424ZM272.894 13.6395C273.875 12.9294 270.426 13.609 270.494 13.7544C271.325 13.8525 272.035 13.7409 272.894 13.6395ZM269.516 13.2101C268.722 13.1289 267.883 13.2101 266.977 13.4197C267.755 13.5617 268.57 13.4975 269.516 13.2101ZM280.039 15.702L279.937 15.5194L276.661 18.2108C277.925 17.5244 278.889 16.6791 280.042 15.702H280.039ZM265.932 13.1255C265.182 13.0072 264.418 13.1086 263.569 13.3555C264.374 13.44 265.111 13.3453 265.932 13.1255ZM271.403 14.2853C270.013 14.0418 268.668 14.4036 267.258 14.4171C265.848 14.4307 264.445 14.336 263.075 14.7079C265.567 14.7147 268.975 14.8026 271.403 14.2853ZM260.895 12.6928C260.939 12.5981 260.722 12.2397 260.638 12.2769C260.252 12.4358 260.002 12.6217 260.117 13.3588C260.448 13.2101 260.776 12.943 260.895 12.6928ZM277.192 18.6875L278.206 17.9504C278.629 17.6427 279.014 17.3114 279.332 16.8346C278.75 17.2099 278.304 17.6055 277.783 18.0383C277.547 18.2378 277.117 18.39 277.195 18.6875H277.192ZM260.766 15.161C260.878 15.0967 260.621 14.7586 260.492 14.7417C260.364 14.7248 260.056 14.7519 260.009 14.8736C259.961 14.9953 259.944 15.3774 259.985 15.4484C260.249 15.3841 260.587 15.2624 260.766 15.161ZM268.086 21.0171C269.909 19.8979 271.501 18.7991 273.006 17.5413C272.482 17.6055 267.653 20.5708 268.086 21.0171ZM262.893 15.6851C261.906 15.5836 260.952 15.7256 260.019 16.0198C261.02 16.0299 261.929 15.9961 262.893 15.6851ZM284.13 23.1032C282.831 22.1667 281.587 21.3755 280.177 20.6418C281.381 21.6527 282.649 22.542 284.13 23.1032ZM271.298 22.7043C272.025 22.1971 272.624 21.7508 273.357 21.0813C273.675 20.5268 270.808 22.7448 271.298 22.7043ZM285.127 24.05L283.585 23.6037C283.754 23.9485 283.944 24.1649 284.177 24.3069C284.491 24.4997 284.779 24.5301 285.124 24.05H285.127ZM267.197 20.3848L265.239 21.7846L265.361 21.957L267.319 20.5573L267.197 20.3848ZM280.177 24.2325C279.335 23.6408 278.514 23.0863 277.465 22.5792C278.196 23.2926 279.088 23.9418 280.177 24.2325ZM286.351 24.6417L285.489 24.2461C285.438 24.5233 285.408 24.689 285.415 24.8175C285.421 24.946 285.736 25.1657 285.844 25.0981C285.952 25.0305 286.219 24.787 286.351 24.6417ZM266.382 22.4608L267.653 21.5107C267.735 21.4499 267.785 21.1861 267.741 21.0746L266.72 21.8387L263.985 23.9587C264.878 23.5293 265.611 23.0424 266.386 22.4608H266.382ZM268.134 22.0754L268.15 21.8286C267.075 22.5115 266.22 23.1134 265.314 23.9418C266.375 23.4245 267.079 22.8091 268.134 22.0754ZM280.258 25.1826C279.572 24.547 278.909 24.1615 278.091 23.9823C278.771 24.4929 279.467 24.9561 280.258 25.1826ZM283.626 25.9231L281.756 25.0474C282.175 25.4362 282.534 25.6797 282.956 25.9704L283.399 26.2747C283.474 26.3255 283.633 26.011 283.626 25.9231ZM262.815 23.8167C263.755 23.3061 264.502 22.8429 265.128 22.2512L263.965 22.9207C263.532 23.1675 263.072 23.4549 262.818 23.8167H262.815ZM278.226 26.1936C277.777 25.9062 277.344 25.6188 276.877 25.3787L275.275 24.5538C275.707 25.0034 276.062 25.2942 276.482 25.6357L278.226 26.1936ZM282.01 27.3466C281.438 26.6264 280.816 26.224 280.059 25.913C280.674 26.4945 281.31 26.9848 282.01 27.3466ZM265.432 28.2865L267.535 26.5824C268.577 25.7405 269.635 25.0136 270.612 24.0804C269.402 24.7025 268.462 25.5816 267.373 26.3559C266.159 27.2215 265.091 28.1276 264.049 29.2096C263.37 29.9128 262.514 30.4335 261.943 31.174C263.326 30.3422 264.272 29.2231 265.429 28.2899L265.432 28.2865ZM281.32 28.2899C281.141 28.344 280.874 28.3947 280.749 28.4049C280.623 28.415 280.468 28.0904 280.353 28.016L278.236 26.6501L276.613 25.9874L281.283 29.0642C281.726 28.7159 282.189 28.2798 282.52 27.918L281.317 28.2899H281.32ZM258.234 27.9788C259.762 27.2722 261.385 25.7642 262.555 24.6586C261.642 25.017 261.05 25.7067 260.333 26.2849L258.234 27.9822V27.9788ZM254.43 30.4504C255.14 30.4099 255.735 29.8486 255.816 29.0642C255.515 29.2163 255.167 29.5071 254.964 29.8351C254.883 30.1664 254.697 30.2746 254.43 30.4504ZM254.163 30.7852C253.994 30.704 253.811 30.7175 253.419 30.7547L253.49 30.1563L252.334 31.2146L253.145 31.9855L254.166 30.7852H254.163ZM254.626 33.4461L256.428 31.4073L254.051 32.8815L254.626 33.4461ZM257.027 35.1604L257.138 34.3489C256.905 34.4875 256.475 34.8391 256.367 35.0927C256.317 35.2144 256.611 35.681 256.716 35.6033C256.803 35.5357 257.013 35.2753 257.027 35.1637V35.1604Z" fill="black"/>
<path d="M245.815 42.4737C245.896 42.7273 244.949 42.8693 244.976 43.1263L245.034 43.6842C244.56 43.7383 244.097 44.1778 244.131 44.5903C244.469 44.6005 244.777 44.6275 244.986 44.6884C244.692 45.4153 244.002 45.2192 243.455 45.2834L237.876 45.9225L211.209 49.9629C206.553 50.6696 201.928 51.2579 197.488 52.7118L195.608 53.3272C195.443 53.3272 195.382 52.8504 195.389 52.5427L193.286 53.0871C193.218 53.104 192.968 53.1378 192.954 53.0769L192.897 52.8403C192.876 52.7524 193.069 52.7321 193.221 52.6983L195.216 52.2181C195.341 51.8665 195.483 51.5859 195.642 51.2714L197.823 47.0315L204.697 34.0716L206.387 30.846L204.988 30.8798C205.221 30.3862 205.596 30.4065 206.016 30.3287L205.938 29.9669C205.874 29.6728 207.016 29.9872 207.598 28.9695C207.841 29.2197 208.142 29.3989 208.436 29.3448C210.188 29.0236 211.845 28.7869 213.603 28.5333L216.964 28.0498C217.44 27.9822 218.34 28.1851 218.536 27.5427C218.576 27.4074 218.972 27.2316 219.016 27.3263C219.06 27.4209 219.151 27.6238 219.171 27.7252L219.273 28.1749C219.297 28.2865 218.918 28.3846 218.837 28.4792C218.448 28.9188 218.299 29.6964 218.056 30.2273L217.349 31.7556L214.249 38.3014L219.09 37.9363L237.186 36.7968L241.281 36.6582L246.528 36.4215C246.863 36.408 247.171 36.5162 247.475 36.6886L248.78 36.7292C248.29 37.2972 247.624 36.9185 247.039 37.0808L245.111 37.615C246.325 37.7063 247.465 37.3581 248.709 37.2296L251.509 36.9422C251.607 36.9321 251.877 36.9726 251.965 36.9862C252.043 36.9997 252.039 37.2533 251.972 37.2938C251.904 37.3344 251.739 37.402 251.657 37.4156L249.497 37.7604L250.376 38.4367C249.487 38.5922 248.834 38.6226 247.918 38.6159L246.778 39.8635C247.045 40.2929 248.513 39.5592 249.159 40.0765L245.646 41.9327L245.815 42.4771V42.4737ZM216.331 30.0379C216.947 29.7303 217.308 29.3279 217.657 28.7633L216.605 28.9898L216.335 30.0379H216.331ZM209.867 30.8731L212.477 30.3253C213.035 30.207 213.63 30.1732 213.731 29.5105C212.419 29.8215 211.277 30.0244 209.975 30.2273C209.802 30.2543 209.667 30.9137 209.863 30.8731H209.867ZM211.767 38.4874L213.789 34.7546L215.828 30.8798C215.865 30.8088 216.003 30.6127 216.041 30.5519C216.064 30.5147 215.946 30.5079 215.905 30.5248C215.861 30.5417 215.716 30.6702 215.652 30.7919C214.414 33.1587 212.815 36.0056 211.351 38.3454C211.25 38.5077 211.253 38.7342 211.344 38.7173C211.412 38.7038 211.713 38.5854 211.767 38.4874ZM231.966 37.7232L232.294 37.9261L237.328 37.6861L238.234 37.6793C240.669 37.6624 243.083 37.517 245.467 36.9963C243.096 36.7055 240.892 37.0707 238.64 37.4223L238.569 37.118C237.528 37.2702 236.561 37.3446 235.516 37.3851L232.064 37.5238C231.103 37.561 230.214 37.7334 229.352 38.1053L230.542 38.0073C231.55 38.5685 231.665 37.5373 231.966 37.7232ZM211.618 31.8976C212.037 31.7927 212.501 31.4614 212.673 31.0624C212.108 31.0557 211.537 31.1943 211.618 31.8976ZM234.928 38.741L240.094 38.2642C239.059 38.0039 235.79 38.1797 234.928 38.741ZM211.635 32.2932C211.043 32.6211 210.827 33.1959 210.702 33.791C211.148 33.3582 211.459 32.9187 211.635 32.2932ZM244.388 39.1602C242.779 39.052 241.321 39.5423 239.935 40.0495C241.703 39.9954 243.117 39.9345 244.388 39.1602ZM237.352 40.0326C238.17 40.0528 238.938 40.0055 239.661 39.7485C239.063 39.6099 238.637 39.7959 238.163 39.8195C237.217 39.8669 236.334 39.8567 235.435 40.0495C236.101 40.1881 236.699 40.0156 237.352 40.0292V40.0326ZM244.483 41.0503C244.523 40.9421 244.594 40.7494 244.543 40.7527L244.276 40.7764L242.664 40.9116C242.549 40.9218 242.295 41.1213 242.383 41.1247L244.479 41.0503H244.483ZM235.452 39.309C234.451 39.1636 233.575 39.2076 232.679 39.6099C233.67 39.637 234.583 39.5051 235.452 39.309ZM227.726 37.916L221.89 38.3251C222.39 38.4806 227.371 38.3251 227.726 37.916ZM208.866 38.3014C209.853 37.0605 210.496 35.8839 211.033 34.5619C210.117 35.752 209.38 37.0267 208.866 38.3014ZM238.417 40.9218C237.443 40.7358 236.804 40.6581 236.124 41.1686L238.417 40.9218ZM242.694 42.0376C241.473 41.9733 240.263 42.2303 239.059 42.6529C240.32 42.6698 241.44 42.3486 242.694 42.0376ZM243.576 43.1161C243.695 43.1229 244.053 43.1466 244.04 43.035L243.972 42.565C243.959 42.4602 241.822 42.8524 241.615 43.0316L243.576 43.1195V43.1161ZM220.73 38.5246C221.116 38.4671 220.906 38.3285 220.652 38.3386L216.267 38.7004C217.751 38.8897 219.155 38.6361 220.73 38.5246ZM223.144 39.5457L225.761 39.3597C224.886 39.1568 221.849 39.2955 221.082 39.5727C221.809 39.6877 222.444 39.5964 223.144 39.5457ZM228.443 41.4121C229.065 41.3715 229.541 41.1348 230.001 40.7967C229.379 40.7392 228.764 40.9049 228.443 41.4121ZM237.298 42.636C237.203 42.2844 233.609 42.9843 233.409 43.15C234.762 43.0688 235.949 42.8862 237.298 42.636ZM241.764 44.7323C242.224 44.685 242.924 45.0163 243.404 44.6613C243.57 44.5396 243.708 44.188 243.789 43.8837L239.671 44.428C238.572 44.5734 237.524 44.6782 236.378 44.9521C238.167 45.253 239.918 44.9217 241.761 44.7323H241.764ZM232.574 44.8507C234.944 44.4111 237.244 44.4314 239.681 43.9208C238.468 43.8634 237.365 44.0527 236.192 44.188L232.554 44.6072L232.267 44.641C232.219 44.6478 232.507 44.8642 232.571 44.854L232.574 44.8507ZM219.503 40.533L217.018 40.5059C217.802 40.817 218.705 40.8575 219.503 40.533ZM211.287 39.7012C211.334 39.5795 211.375 39.3834 211.327 39.3766C210.888 39.3022 210.553 39.4814 210.266 40.1881C210.634 40.2591 211.151 40.0528 211.287 39.7012ZM212.791 41.4831L216.676 41.0875C216.544 40.9387 211.983 40.9556 212.791 41.4831ZM197.952 51.8631L201.59 51.2173L214.712 48.7964L220.994 47.8328L227.763 46.788C228.06 46.7407 228.436 46.5446 228.662 46.4026C231.425 46.0949 234.15 45.9631 236.889 45.4288C235.026 45.0738 230.025 45.8887 228.26 46.3586C225.866 46.9943 223.435 47.2918 220.97 47.6367L217.15 48.1709L209.055 49.4389L200.247 50.7778C199.348 50.913 198.523 51.2004 197.948 51.8631H197.952ZM216.93 45.0975C219.317 44.9081 221.511 44.6715 223.604 44.1812C221.227 44.2319 219.009 44.5599 216.93 45.0975ZM216.128 43.9817C216.838 43.9513 217.562 43.7484 218.201 43.6132C217.643 43.4813 217.109 43.6808 216.551 43.7112C215.445 43.7721 214.387 43.8025 213.393 44.1034L216.132 43.9851L216.128 43.9817ZM197.887 50.1218C198.591 50.0407 198.503 49.493 198.706 49.1176L199.554 47.5657C200.64 45.581 201.478 43.5489 202.276 41.429L197.563 49.804L196.812 51.2072L197.651 50.8758C197.522 50.5817 197.431 50.4329 197.468 50.3382C197.505 50.2436 197.769 50.132 197.887 50.1218ZM220.774 46.6427L209.65 48.553L209.711 48.908L220.835 46.9977L220.774 46.6427ZM208.626 48.2757C209.397 48.1642 210.107 48.0357 210.773 47.7415L208.815 47.9275C207.659 48.0391 206.546 48.3603 205.437 48.695C206.55 48.7051 207.551 48.4279 208.626 48.2724V48.2757Z" fill="black"/>
<path d="M228.216 22.4845C227.614 22.826 226.285 23.1912 225.697 23.2994L209.011 26.3998L195.057 29.1014L194.361 30.6533C194.327 30.7277 194.144 30.8765 194.087 30.9272C194.029 30.9779 193.756 30.7108 193.783 30.6398L194.364 29.24L193.154 29.3144C192.778 29.338 192.285 29.5375 192.004 29.0473C192.373 28.7734 192.941 28.6652 193.421 28.5773L194.665 28.3508L193.867 27.9856C194.151 27.5765 194.408 27.5663 194.895 27.7286C195.105 27.5055 195.176 26.8901 195.324 26.5554L196.014 24.9933L195.223 25.2807C195.402 25.0271 195.527 24.9155 195.75 24.7262C196.024 24.6417 196.092 24.5774 195.639 24.5538C195.639 24.2664 195.791 23.8944 196.018 23.6206L196.21 24.3035L198.019 19.5023C197.492 20.0839 197.336 20.7838 196.903 21.5074C196.416 20.8988 196.974 20.5809 197.204 20.182C197.739 19.2521 198.398 18.3156 198.753 17.308L199.639 14.7992L200.836 11.6547L201.972 8.91941L202.986 6.53234L204.19 3.84772C204.237 3.74629 204.399 3.54004 204.352 3.46566L204.166 3.1715C204.531 2.92129 204.802 2.64404 205.005 2.21464L205.951 0.192723C205.995 0.0980513 206.293 -0.0574806 206.36 0.0135231C206.895 0.568028 205.688 0.750609 206.394 1.62632L205.83 2.83677L206.506 2.60685C208.183 2.78605 208.305 1.00419 208.551 2.44117C209.221 2.39046 209.968 2.14363 210.702 1.99486C211.087 1.9171 211.719 2.10644 212.189 1.934C212.954 1.65675 213.667 1.5587 214.468 1.54517L215.381 1.0211C215.466 1.13268 215.577 1.3254 215.52 1.38964L215.124 1.82581L217.772 1.59589L218.472 0.534217C218.921 0.69313 218.499 1.10901 218.576 1.26116C218.627 1.36597 218.796 1.6128 218.86 1.71423C218.935 1.83257 218.397 1.9712 218.309 2.13349L215.953 6.40724C215.696 6.39709 215.692 6.39033 215.696 6.35652L216.24 5.20017C215.456 5.67691 215.591 6.55939 215.31 7.12742L214.336 9.102L211.618 14.7823L210.827 16.3613C211.321 15.9217 211.493 15.3706 211.79 14.8634L212.947 12.8922L217.258 6.02855C217.707 5.31513 218.194 4.74372 218.749 4.05059C218.871 4.26698 217.907 6.47148 217.86 6.54924L214.749 11.4722L211.381 17.1017L215.019 16.6216L218.296 16.2227L227.296 15.2016C227.334 15.1982 228.608 14.6673 229.251 15.0291C229.335 15.0764 229.095 15.3402 228.984 15.3638L227.1 15.7189C226.678 15.8 226.339 15.9048 226.008 16.1111L227.303 15.9454L228.28 16.0232L228.547 16.0435C228.625 16.0502 228.52 16.3241 228.443 16.3376C227.783 16.4762 226.671 16.7264 225.954 16.9158C226.617 17.2133 227.293 17.0848 227.979 16.8989C228.033 16.9327 228.071 17.2708 228.067 17.423C228.564 17.3553 229.055 17.2809 229.535 17.5514C228.821 18.4339 226.711 18.2175 227.638 19.127C228.49 19.9622 228.202 19.1575 228.7 19.7559C228.781 19.854 228.534 20.1955 228.399 20.209L227.533 20.3003L227.442 20.7838C227.381 21.105 226.279 20.7128 226.282 21.2301L227.519 21.2436C227.567 21.291 227.658 21.5276 227.601 21.5615C227.543 21.5953 227.381 21.6899 227.286 21.7035L225.017 22.0348L227.026 22.116C227.425 22.1329 227.864 21.9232 228.219 22.4744L228.216 22.4845ZM211.476 2.63052C212.379 2.80295 213.153 2.60347 213.954 2.19435C213.069 2.23154 212.24 2.35326 211.476 2.63052ZM214.211 3.39803L214.262 3.79701C214.712 3.57723 215.053 3.24588 215.243 2.8131L212.085 3.23236C211.902 3.25603 211.652 3.30336 211.54 3.37436C211.429 3.44537 211.385 3.75643 211.361 3.99987C212.22 4.03707 214.151 2.90439 214.211 3.39465V3.39803ZM209.525 3.61104C209.099 3.67867 208.342 4.06411 208.467 4.79106C208.568 4.85192 210.296 3.4927 209.525 3.61104ZM200.849 14.4239L204.203 8.0268C205.076 6.49853 205.742 5.0514 206.222 3.32703C206.009 3.35408 205.688 3.41156 205.515 3.46227L204.109 6.63039L200.849 14.4239ZM208.406 8.77065C209.059 8.45958 209.417 7.78336 209.495 7.03613C208.856 7.44862 208.572 8.07075 208.406 8.77065ZM205.853 13.1323L207.013 10.3226C206.357 11.1746 205.982 12.0503 205.468 13.0748C205.478 13.3453 205.748 13.3859 205.853 13.1323ZM209.201 17.0409L211.442 12.003C210.786 12.6657 210.502 13.538 210.042 14.3427L208.179 17.6022C208.42 17.7306 208.734 17.7543 208.862 17.6427C208.984 17.5379 209.126 17.2066 209.201 17.0409ZM210.78 18.5049C212.004 18.5015 212.967 18.1296 214.069 18.0349L220.125 16.8955C220.548 16.8177 220.923 16.6892 221.346 16.6419C222.637 16.4931 223.861 16.3985 225.085 15.9995L220.95 16.3985C220.314 16.5912 219.696 16.7129 219.04 16.7974L215.527 17.2505C214.877 17.335 214.282 17.4872 213.664 17.6765C212.673 17.9775 211.692 18.1533 210.783 18.4982L210.78 18.5049ZM201.999 19.313C203.317 17.4771 204.389 15.4213 205.292 13.3555C204.027 15.3097 202.962 17.1795 201.999 19.313ZM226.765 18.532L225.176 18.9377C225.369 19.127 227.107 19.1845 226.765 18.532ZM223.844 20.8447L224.957 20.5471C223.885 20.4998 222.992 20.7804 221.998 20.99L216.659 22.116C218.62 22.116 221.924 21.3552 223.841 20.8413L223.844 20.8447ZM221.254 22.9376C222.262 22.9984 224.111 22.5082 224.808 22.2309C224.061 22.1734 223.489 22.4744 222.826 22.569C222.255 22.6502 221.751 22.755 221.254 22.941V22.9376ZM206.154 25.4903C206.411 25.3416 206.492 25.3044 206.218 25.2435L203.131 25.9738C204.23 25.9941 205.147 25.7202 206.151 25.4937L206.154 25.4903ZM203.561 25.2706C202.672 25.3787 201.891 25.6154 201.069 25.8453L200.88 26.0381C200.663 26.2612 203.449 25.4193 203.561 25.2672V25.2706ZM199.929 27.2891C200.443 27.0423 201.224 27.3229 201.508 26.6771L197.116 28.0262C198.175 28.1513 199.061 27.7083 199.929 27.2925V27.2891ZM195.571 27.8402C196.092 27.7083 196.285 27.6137 196.67 27.1775C196.525 27.0761 196.078 26.9949 195.899 27.0659C195.74 27.1302 195.632 27.5291 195.571 27.8402Z" fill="black"/>
<path d="M148.594 45.6621C143.627 46.3282 138.839 46.8591 133.906 47.8497C134.052 47.3257 134.559 47.613 134.91 47.2445L133.673 47.3324L133.271 48.083L133.034 47.5082C132.983 47.3899 132.621 47.4778 132.483 47.5082L132.138 47.5826C132.047 47.6029 131.949 47.4338 131.915 47.3459C131.665 46.7204 133.473 47.6063 133.599 44.969L133.189 44.641C132.956 44.4551 133.899 44.4246 134.116 43.8228C134.258 43.434 134.2 43.15 134.058 42.7611C134.555 42.6056 134.951 41.7569 134.697 41.456C134.65 41.3985 134.356 41.3952 134.278 41.3816C134.2 41.3681 134.052 41.2227 134.085 41.1551C134.359 40.6378 134.91 40.9286 135.066 40.6412C135.137 40.5059 135.194 40.2422 135.242 39.9987L134.102 40.2219C133.967 40.2489 133.663 39.9987 133.666 39.8736C134.288 39.7756 134.833 39.6944 135.343 39.5592L134.396 39.1873C135.029 38.7511 136.101 38.7308 136.401 38.7072C137.92 38.5821 139.309 38.1898 140.848 37.9904L157.3 35.867L163.204 35.2347L180.174 33.6219L191.893 32.611C190.571 33.2534 189.14 32.824 187.822 33.4089C189.789 33.2737 191.659 33.1384 193.546 32.8138C194.381 32.6685 195.125 32.5028 195.967 32.4487L202.056 32.0362C202.229 32.026 202.415 32.0801 202.489 32.114C202.563 32.1478 202.313 32.4081 202.215 32.4183L197.042 32.8984C196.968 33.2602 196.826 33.4799 196.572 33.4935L194.604 33.5983L195.26 34.403L194.04 34.43L194.07 35.1401L195.777 35.1265C195.794 35.6405 195.402 35.61 195.051 35.61C192.606 35.5931 192.762 35.7149 191.399 36.665C191.128 36.8543 190.5 36.3945 190.412 37.0673L191.923 37.1552C192.004 37.1586 192.193 37.2364 192.264 37.2769C192.356 37.331 192.092 37.5677 191.987 37.5981L189.411 38.3217C189.36 38.5415 190.767 39.096 190.131 39.238C189.576 39.3631 188.799 38.8627 188.085 39.7316L188.332 40.1002C188.386 40.1813 188.234 40.5431 188.139 40.5127L187.345 40.2523C186.726 40.5837 186.165 40.9657 185.627 41.5L188.552 41.4898C188.444 42.2303 187.883 42.0646 187.375 41.953C186.801 41.8279 186.104 42.0579 185.526 42.0612C184.725 42.068 184.031 42.0274 183.206 42.1018L163.281 43.9242L155.048 44.8101L148.59 45.6757L148.594 45.6621ZM191.757 35.0251C192.434 35.326 193.002 35.157 193.225 34.5484L191.757 35.0251ZM171.427 35.6472C175.717 35.7013 179.737 35.3226 183.832 34.8189C182.31 34.6701 180.928 34.8594 179.436 34.9642L171.427 35.6472ZM189.921 36.9693C189.249 36.665 188.613 36.7765 188.011 36.9997C188.664 37.162 189.262 37.2161 189.921 36.9693ZM174.625 37.9261C177.026 37.6928 179.409 37.5339 181.661 36.9321C177.374 36.9591 173.415 37.5981 169.344 38.1087C168.914 38.1628 168.553 38.1662 168.177 38.3183C170.399 38.3352 172.444 38.1357 174.625 37.9227V37.9261ZM186.026 39.1366C186.926 38.7173 188.434 38.954 188.643 38.4603C187.954 38.4062 187.321 38.4333 186.672 38.5854L184.67 39.0554L186.026 39.1332V39.1366ZM178.344 38.2034C179.152 38.1019 179.913 38.1188 180.671 37.8348L177.033 38.129C175.596 38.2473 174.209 38.4637 172.87 38.7105C174.811 38.7173 176.542 38.4231 178.344 38.2V38.2034ZM166.855 35.5424C166.017 35.5458 165.222 35.6709 164.39 35.8197C165.202 35.9989 166.047 35.938 166.855 35.5424ZM182.652 39.6843C181.08 39.5119 179.514 39.7688 177.999 40.063C179.643 40.1644 181.093 39.9954 182.652 39.6843ZM166.598 42.2438L168.985 42.1153L170.206 42.0883L184.258 41.2667C184.799 41.2362 185.272 41.0604 185.624 40.7257C184.637 40.7933 183.822 40.7054 182.868 40.7223L181.032 40.7527C179.551 40.7764 178.131 40.8373 176.644 41.0063L169.151 41.8516C168.235 41.9564 167.379 41.9699 166.605 42.2438H166.598ZM162.139 35.9921C161.652 35.8197 161.351 35.8298 160.999 35.8907L159.011 36.2355C160.147 36.2998 161.111 36.1307 162.139 35.9921ZM162.852 36.5601C161.868 36.5635 160.847 36.6616 159.826 36.9422C160.847 36.9693 161.78 36.8374 162.852 36.5601ZM165.067 38.1865C166.27 38.0242 167.433 38.1662 168.502 37.6691L161.469 38.3792C162.693 38.4671 163.819 38.3048 165.067 38.1831V38.1865ZM150.464 37.1214L156.252 36.4147C155.015 36.2186 153.855 36.5399 152.644 36.6819C151.86 36.7765 151.089 36.834 150.464 37.1214ZM168.191 40.9421L172.935 40.32C172.4 40.1441 171.903 40.2929 171.379 40.3504L166.578 40.8846C167.133 41.0841 167.653 41.0131 168.191 40.9421ZM163.67 38.6531C163.126 38.4705 160.62 38.8999 160.296 39.0317C161.544 39.0385 162.548 38.9033 163.67 38.6531ZM166.723 39.4206C165.915 39.3022 165.073 39.4003 164.252 39.6843C165.107 39.7452 165.885 39.6302 166.723 39.4206ZM173.618 40.9793C172.066 40.9083 170.5 41.1111 168.931 41.3715C170.517 41.4019 172.012 41.2261 173.618 40.9793ZM157.233 38.3217C157.479 38.1425 157.307 38.1324 157.077 38.1594C155.924 38.2913 154.829 38.3758 153.767 38.7883C154.95 38.7477 156.032 38.5212 157.229 38.3217H157.233ZM159.877 40.2726L162.203 39.877C161.324 39.7384 160.536 39.9311 159.708 40.09C158.538 40.3166 157.392 40.4755 156.316 40.8339C157.598 40.7933 158.68 40.4755 159.88 40.2726H159.877ZM161.949 42.4061L168.113 41.5203C166.805 41.4256 165.604 41.713 164.343 41.9023C163.498 41.997 162.656 42.068 161.949 42.4095V42.4061ZM154.068 39.309C154.078 39.1197 154.078 38.8965 154.041 39.0689L150.264 39.5727C151.566 39.5964 152.736 39.4273 154.064 39.309H154.068ZM158.845 42.2844C160.549 42.1187 162.176 41.8753 163.819 41.4662C163.281 41.4121 162.751 41.4323 162.237 41.5169L157.29 42.3385C157.841 42.4298 158.321 42.3351 158.845 42.2844ZM148.915 38.8593C149.013 38.5381 145.247 39.2617 144.79 39.4679C146.214 39.6099 147.407 39.0588 148.915 38.8593ZM146.427 40.6919L151.853 39.9345C150.477 39.8466 147.667 40.2625 146.427 40.6919ZM159.491 41.527C158.24 41.4459 157.084 41.6961 156.042 42.183L159.491 41.527ZM147.11 40.1847C145.926 40.2489 144.726 40.4755 143.566 40.9657C144.793 40.8305 145.902 40.5431 147.11 40.1847ZM154.69 41.7536C153.622 41.7671 152.556 42.0105 151.556 42.3182C152.692 42.3892 153.669 42.1255 154.69 41.7536ZM147.228 42.4365C149.142 42.2675 150.805 41.9767 152.533 41.6048C151.556 41.5744 150.65 41.7197 149.72 41.8651C148.847 42.0579 148.006 42.1525 147.228 42.4399V42.4365ZM148.144 41.7975C147.285 41.7299 146.47 41.8956 145.74 42.254C146.643 42.254 147.356 42.0511 148.144 41.7975ZM153.926 43.9716C152.966 43.8769 152.201 44.073 151.437 44.2488C152.394 44.3232 153.182 44.1778 153.926 43.9716ZM150.169 44.8574C149.111 44.8236 148.056 45.0096 147.052 45.2699C148.181 45.2699 149.148 45.1685 150.169 44.8574Z" fill="black"/>
<path d="M116.074 35.37L111.98 36.9118C110.367 37.517 108.73 37.7976 107.016 37.9565C104.203 38.2135 101.481 38.3454 99.2226 36.2896C98.357 35.5018 97.674 34.758 97.1466 33.7065C95.6487 30.7142 95.8888 28.0025 97.2615 24.9155C98.7323 21.6122 101.136 18.772 104.159 16.7501C105.366 15.942 106.648 15.3841 107.953 14.7857C110.938 13.4197 114.089 13.0951 117.345 13.3115C118.356 13.3791 119.168 13.8964 120.077 14.265C121.129 14.6876 121.917 15.2218 122.674 16.0739C123.215 16.6825 123.793 17.2133 124.152 17.9606C125.152 20.0366 125.433 22.0619 124.784 24.2697C124.392 25.6053 123.989 27.0118 123.465 28.2121C123.418 28.3169 123.181 28.5131 123.225 28.5841L123.442 28.9086L122.64 30.0041C120.977 32.2729 118.84 34.3252 116.071 35.3666L116.074 35.37ZM116.551 15.2083C116.906 15.2726 117.528 15.1069 117.893 14.9919C116.571 14.2041 115.621 14.5422 114.306 14.7958L116.547 15.2049L116.551 15.2083ZM119.002 16.1415C119.148 16.1855 119.506 16.0536 119.638 15.9522C118.924 15.4957 118.174 15.4382 117.315 15.6174L119.006 16.1381L119.002 16.1415ZM121.612 17.5447C121.535 16.8718 121.112 16.4999 120.551 16.3207C120.804 16.8313 121.149 17.2911 121.612 17.5447ZM110.658 15.6208L111.699 15.3199C110.725 15.2726 109.964 15.472 109.16 15.9758C109.674 15.9014 110.15 15.7662 110.658 15.6208ZM123.019 20.6655C123.208 19.7661 123.083 18.8363 122.39 18.0721L122.715 19.7018C122.782 20.0366 122.853 20.3375 123.019 20.6655ZM104.48 17.805C105.593 17.3249 106.364 16.7501 107.232 16.155C106.123 16.4357 105.241 17.1254 104.48 17.805ZM109.464 16.9225C109.704 16.8245 109.461 16.8177 109.298 16.8414C108.453 17.2032 107.584 17.423 107.016 18.0958L109.467 16.9225H109.464ZM123.844 23.6273C124.148 22.4879 124.213 21.3823 123.719 20.3882L123.82 22.6569L123.844 23.6273ZM120.368 25.9975C121.024 25.0711 121.71 23.9857 121.707 22.782C121.707 21.7271 121.738 20.9427 121.166 20.1853L121.311 22.7313C121.413 24.5132 120.7 24.0804 120.365 25.9975H120.368ZM122.907 24.3813C123.273 23.6273 123.516 22.8023 123.151 21.9503L123.039 23.6476C122.958 23.8877 122.823 24.1379 122.911 24.3847L122.907 24.3813ZM111.121 30.1191C113.038 28.8376 114.931 27.3026 115.841 25.2334C116.568 24.0229 116.635 22.3932 115.885 21.2402C115.249 20.2665 113.592 20.1786 112.673 20.3916C110.965 20.7872 109.413 21.4938 108.135 22.6569C106.421 24.2224 104.189 27.3297 105.826 29.4564C106.786 30.704 108.872 30.9948 110.106 30.0244L111.117 30.1191H111.121ZM117.873 24.5267C118.586 23.5394 118.468 22.2546 117.778 21.3721C117.947 22.4913 117.981 23.4583 117.873 24.5267ZM106.529 22.4C107.182 21.9875 107.73 21.5378 108.223 21.0272C107.486 21.318 106.884 21.7271 106.529 22.4ZM100.95 20.5437C102.093 19.0256 99.3883 21.7711 99.5911 22.3493L100.95 20.5437ZM119.847 27.9214L121.366 26.3086C121.802 25.8453 122.275 25.4836 122.211 24.6822L121.558 25.8318L121.494 25.3787L119.847 27.918V27.9214ZM116.405 26.4269C117.159 25.7676 117.291 24.8242 117.383 23.9722L116.405 26.4269ZM102.871 24.6045C103.53 23.8471 104.139 23.1371 104.693 22.3222C103.797 22.8835 103.094 23.6003 102.871 24.6045ZM118.83 25.186L116.571 28.8579C117.217 29.0067 119.08 25.9772 118.83 25.186ZM98.6241 24.6687L99.7872 22.8023C100.007 22.187 97.7112 25.3179 98.6241 24.6687ZM101.424 25.5343C101.9 24.8885 102.34 24.2934 102.803 23.4887C102.181 23.9992 101.606 24.6518 101.424 25.5343ZM104.183 24.121L103.124 25.9434L103.31 26.0516L104.369 24.2292L104.183 24.121ZM121.268 30.2476C121.88 29.5747 122.123 30.0075 122.938 28.0296C122.431 28.5333 121.988 29.0033 121.514 29.5443L119.743 31.5662C120.372 31.2957 120.754 30.8122 121.264 30.2476H121.268ZM113.302 29.3076C114.235 28.8512 115.073 28.2561 115.405 27.2992C114.576 27.9315 113.914 28.5841 113.302 29.3076ZM103.672 29.1014C103.794 28.0431 103.97 27.1944 104.257 26.2037C103.517 26.9611 103.114 28.131 103.672 29.1014ZM111.777 31.4039C112.808 31.2281 113.555 30.8494 114.208 30.2814C113.305 30.6499 112.5 31.0083 111.777 31.4039ZM98.8507 30.1326L99.1178 28.4928C99.1854 28.0803 99.182 27.6441 99.0941 27.1403C98.9149 27.3297 98.5159 30.2273 98.8507 30.136V30.1326ZM106.215 30.6229C105.606 29.9771 105.221 29.4124 104.832 28.6753C104.504 29.6795 105.268 30.5823 106.215 30.6229ZM114.35 33.4935L116.382 32.7361C116.923 32.4453 117.416 32.1681 117.88 31.7758L116.149 32.4216C115.516 32.7597 114.931 33.0776 114.35 33.4935ZM97.39 30.6432L97.461 28.4319C97.3292 28.486 97.1702 28.5232 97.1702 28.5942L97.1804 28.9492C97.2007 29.5781 97.221 30.1089 97.39 30.6432ZM102.878 32.3405C102.648 31.7082 102.374 31.1267 102.059 30.4876C102.053 31.201 102.218 31.884 102.878 32.3405ZM103.087 33.5442C102.414 32.8477 101.84 32.2052 101.349 31.4242C101.102 32.425 102.245 33.4292 103.087 33.5442ZM98.4517 33.3244L97.4813 31.0624C97.3461 31.9855 97.8127 32.8578 98.4517 33.3244ZM112.859 35.725C113.839 35.6641 114.536 35.3226 115.175 34.8087C114.877 34.8155 112.409 35.1975 112.859 35.725ZM98.7458 34.6768L97.8904 33.8045C97.9141 34.3421 98.3131 34.7986 98.7222 35.0826C98.7966 35.1063 98.8202 34.7546 98.7458 34.6768ZM107.513 36.6886L104.697 36.6244C105.606 37.0707 106.502 36.9287 107.513 36.6886ZM103.987 37.1315C103.236 36.8712 102.79 36.7258 102.272 36.4553L100.72 35.6439C100.42 35.4883 99.8684 35.4173 99.4119 35.3531C100.156 36.08 100.94 36.6345 101.758 37.0403C102.871 36.8408 103.026 37.304 103.987 37.1282V37.1315Z" fill="black"/>
<path d="M11.3268 47.4846C10.6945 47.187 9.91685 46.8861 9.61593 46.2843C8.71655 44.4956 9.35558 42.467 9.9608 40.7122C10.2313 39.9311 10.5052 39.2346 10.9684 38.5482C11.8373 37.2567 12.8652 36.0834 14.2582 35.3497C15.6986 34.5923 16.4323 33.6456 18.0417 33.0505L20.1853 32.256C22.4439 31.4174 24.8073 30.8731 27.2215 30.7108L29.5037 30.5586C30.4775 30.4944 31.4174 30.5147 32.4014 30.5248C35.6709 30.5519 38.7511 31.2856 41.6724 32.7733C43.3224 33.6152 44.6038 35.1232 45.0671 36.9422C45.1414 37.2364 45.1955 37.8348 45.1516 38.129C44.4551 42.5887 40.0326 45.2091 36.1409 46.6156C34.4267 47.2344 32.78 47.8328 31.0016 48.2724C28.1716 48.9689 25.3517 49.2867 22.4406 49.5369C21.0881 49.6519 19.7728 49.5775 18.417 49.5978C16.598 49.6248 14.9006 49.2766 13.2033 48.6815C12.4764 48.4279 11.8001 48.2216 11.3302 47.4879L11.3268 47.4846ZM42.6462 34.4233C42.1086 33.7335 41.4493 33.0438 40.5499 32.8274C41.1855 33.5137 41.7197 34.0141 42.6462 34.4233ZM36.9862 32.3946C35.7554 32.0632 34.7242 31.6981 33.6152 31.8367C34.7783 32.2188 35.8941 32.3236 36.9862 32.3946ZM41.0469 35.5458C40.7899 34.4672 39.9007 34.146 39.2279 33.8045C39.2617 34.3252 39.7012 34.3556 40.0021 34.5315L41.0503 35.5458H41.0469ZM37.3344 34.048L37.1248 33.7166L34.8425 33.3143C35.627 33.889 36.4587 33.8417 37.331 34.048H37.3344ZM41.7502 34.8121L42.3824 36.4891L42.7172 36.0935C42.7577 36.0428 42.1661 34.8391 41.7536 34.8121H41.7502ZM39.1129 35.5221C38.8965 34.7242 38.2676 34.5822 37.6252 34.616L39.1129 35.5221ZM40.8812 37.6725C41.1213 36.949 40.8643 36.2085 40.178 35.8535L40.8812 37.6725ZM29.6052 33.9093C28.9729 33.8519 28.3136 33.9601 27.5866 34.19C28.2257 34.3421 28.9086 34.3692 29.6052 33.9093ZM32.8172 34.7174C32.1004 34.2001 31.5628 34.4605 30.8291 34.643L32.8172 34.7174ZM42.7408 40.347C43.7484 39.5761 44.3367 38.0681 43.5794 36.8949C43.1297 39.2008 43.9986 38.1121 42.7408 40.347ZM34.1393 35.5458H35.769C35.3226 35.2685 34.8628 35.1536 34.4064 35.1536L32.3675 35.1637C32.8984 35.3903 33.5171 35.5492 34.1393 35.5458ZM32.1579 35.7047C31.9889 35.2178 30.0887 35.7757 29.9568 36.0496L32.1579 35.7047ZM37.6894 38.7207C38.1797 38.3251 38.5584 37.5846 38.0005 37.2127L37.6894 38.7207ZM40.7223 40.3132C41.2971 39.664 41.5034 38.9371 41.6318 38.1391C41.5608 38.1729 41.3715 38.3217 41.3411 38.413L40.7223 40.3132ZM19.1068 33.8147C19.3603 33.7132 19.3401 33.6727 19.0628 33.6355C17.9234 34.0716 16.8448 34.6938 15.9792 35.4816L19.1034 33.8147H19.1068ZM21.8658 43.5523L23.5225 43.3359C27.5528 42.8118 32.3473 42.3148 35.3497 39.2617C35.8332 38.768 35.7216 38.0783 35.326 37.5914C34.0344 35.9921 30.7142 36.5432 28.8512 36.8712C26.0617 37.3648 23.4109 38.1256 20.9495 39.5558C20.3307 39.9142 18.1398 41.4864 18.6841 42.3283C19.2826 43.2582 20.6452 43.7112 21.8658 43.5523ZM24.4422 37.4088L28.4116 36.3945C27.8165 36.3471 27.2553 36.4486 26.694 36.5838L23.4211 37.3784C22.5251 37.5948 21.6697 38.1324 20.9562 38.6902C22.1295 38.2947 23.2013 37.7266 24.4422 37.4122V37.4088ZM18.0079 37.3547C18.6063 37.02 19.2116 36.7393 19.6917 36.222C18.4779 36.648 17.5244 37.3581 16.5811 38.2169C17.1254 37.9904 17.5514 37.6793 18.0079 37.3547ZM20.4051 38.1932C20.5268 38.1188 20.7263 37.8991 20.8007 37.8078C19.9825 38.1391 19.2521 38.5347 18.7315 39.1974L20.4051 38.1898V38.1932ZM17.5988 41.6318L18.7856 39.7925C18.1127 40.0867 17.8152 40.7189 17.5481 41.3985C17.4872 41.598 17.4466 41.8482 17.5988 41.6318ZM27.2451 44.6951C28.4894 44.7357 29.5308 44.5126 30.633 44.357C31.6778 44.1001 32.682 43.8972 33.5374 43.3393C32.6888 43.4678 31.9787 43.718 31.2247 43.9885L27.2451 44.6917V44.6951ZM27.8064 46.078C29.2366 45.7974 30.5958 45.6689 31.8807 45.1583L24.3407 46.477C25.514 46.5852 26.6027 46.3147 27.8064 46.078ZM17.9977 44.7526L16.2463 42.4196C16.1888 42.8693 16.4154 43.3123 16.6893 43.6977C16.9834 44.1846 17.2776 44.7425 17.9977 44.7492V44.7526ZM10.7283 42.6225C10.7554 42.2675 10.8061 42.0071 10.6201 41.8212C10.4274 42.6834 10.4173 43.5151 10.7554 44.3672L10.7283 42.6225ZM17.9504 46.6393C17.4128 46.2471 16.8583 45.9157 16.1888 45.7061C16.554 46.3891 17.2167 46.5953 17.9504 46.6393ZM14.8398 46.7373L13.5245 45.3646C13.4738 46.122 14.1805 46.5649 14.8398 46.7373ZM16.5067 46.7103L15.046 45.8177C15.2827 46.4668 15.8845 46.7914 16.5067 46.7103ZM17.3722 48.553C14.4509 47.9309 15.5701 48.1676 13.0613 46.7813C13.3994 47.4677 13.9979 47.6604 14.6268 47.9647C15.4822 48.3772 16.3309 48.8269 17.3689 48.553H17.3722Z" fill="black"/>
<path d="M236.216 32.141C235.164 32.4994 235.979 33.1824 234.603 33.365L235.144 32.1816L233.825 32.6583L232.064 32.9795C230.508 33.2635 229.058 33.578 227.469 33.7403L227.137 34.4233C227.087 34.5281 226.793 34.6667 226.705 34.5957C226.617 34.5247 226.566 34.2542 226.607 34.1325L227.171 32.4994L233.443 15.1407L235.019 10.9785L236.709 6.55939L237.717 3.9052C237.744 3.83758 237.852 3.64148 237.886 3.584C237.92 3.52652 238.163 3.56033 238.16 3.62795L238.153 4.10469C238.184 4.11483 238.576 4.11822 238.731 4.10469C238.911 4.08779 239.08 3.69557 239.171 3.50623L239.289 3.25603C239.32 3.19179 239.526 3.10388 239.539 3.17488L239.627 3.5468L239.722 3.96268C239.746 4.07088 240.192 3.95592 240.243 3.85449L240.932 2.42089C240.963 2.36003 241.193 2.22478 241.247 2.18421C241.321 2.13349 241.473 2.38708 241.443 2.48851L241.037 3.82406L242.112 3.68543L245.463 3.23574C245.791 3.19179 246.133 2.98892 246.528 3.1174C246.728 3.18164 247.083 2.89763 247.292 2.69138L247.833 2.93482L248.499 2.24169C248.733 2.83001 248.439 3.15459 248.232 3.61105L246.907 6.52896L243.739 13.6767C247.117 13.6361 249.848 13.1526 253.189 13.0241C254.105 12.9869 255.373 12.899 256.256 12.8145C256.354 12.8043 256.516 13.0816 256.445 13.1357C256.131 13.3622 254.815 13.5448 255.272 14.1297L255.721 14.7045L254.795 15.0765C254.308 15.7459 253.896 16.4154 253.446 17.2302L254.741 17.2809C254.274 17.6461 253.957 17.7509 253.432 17.947L253.602 18.843L252.55 18.8937C252.181 19.2048 251.972 20.0028 251.958 20.4761C252.131 20.5606 252.469 20.8616 252.374 20.9698C251.387 22.116 250.406 20.4863 250.349 21.673L242.829 22.4541L240.716 22.7144C240.26 22.7719 239.969 22.9477 239.773 23.4177L236.52 31.2213C236.561 31.3803 236.665 31.6812 236.649 31.813C236.632 31.9449 236.351 32.0971 236.209 32.1444L236.216 32.141ZM245.494 6.78931C246.18 5.86288 246.633 4.91278 247.008 3.85787C246.393 4.77415 245.845 5.68706 245.494 6.78931ZM243.766 6.1807L244.584 4.89926C244.3 4.88573 243.783 4.96012 243.708 5.14946C243.61 5.39966 243.675 5.82569 243.766 6.1807ZM237.105 7.24238C236.912 8.06399 239.201 3.03964 238.001 4.9094C237.977 4.94659 237.893 5.07846 237.866 5.13593L237.419 6.07927L237.105 7.24238ZM243.414 9.43335C244.07 8.55426 244.543 7.62106 244.878 6.5932C244.192 7.49596 243.675 8.35815 243.414 9.43335ZM241.889 9.24739C242.099 9.18315 243.502 6.83664 243.367 6.55601C242.866 7.00908 242.173 8.46973 241.889 9.24739ZM238.988 10.566C239.424 9.89318 239.763 9.21019 239.962 8.27362C239.523 8.94985 239.13 9.67341 238.988 10.566ZM243.482 11.3065C243.272 11.4925 241.855 13.9911 242.116 14.0317L242.356 14.0689C242.423 14.079 243.512 11.7122 243.482 11.3065ZM248.175 14.478L249.73 14.4611L252.06 14.3664C252.384 14.3529 252.891 14.4611 253.108 14.3089C253.574 13.981 253.872 13.8423 254.41 13.6327C253.551 13.6564 252.648 13.7172 251.701 13.795L248.729 14.0384C248.246 14.079 247.624 13.937 247.144 14.0486L245.02 14.5287C246.122 14.806 247.062 14.4915 248.171 14.478H248.175ZM237.453 14.1061L238.37 11.3674C238.491 10.424 236.726 14.7857 237.453 14.1061ZM236.571 13.6259L236.469 13.9133C236.239 14.5693 235.895 15.1136 235.881 15.7763C236.29 15.8947 237.267 11.6311 236.571 13.6259ZM249.429 19.6038C249.487 19.6038 249.737 19.357 249.703 19.3434L249.537 19.2758C248.486 19.3164 247.458 19.4381 246.501 19.7424L249.429 19.6072V19.6038ZM250.464 20.4727C250.575 20.4389 250.623 20.0399 250.511 20.0095C250.126 19.9081 249.138 20.0501 248.648 20.2462C248.604 20.4558 250.582 20.4355 250.464 20.4727ZM248.479 20.1617C247.008 20.1448 245.51 20.3578 244.016 20.75C245.558 20.8852 246.954 20.4626 248.479 20.1617ZM230.546 26.3221C231.198 25.5749 231.54 24.6687 231.722 23.7423C231.225 24.6011 230.809 25.3821 230.546 26.3221ZM236.28 29.5815L238.126 26.4303C237.186 27.2485 236.601 28.4387 236.28 29.5815ZM230.147 27.3871L229.92 27.9484L228.767 30.8055C229.2 30.8427 230.498 27.5089 230.147 27.3838V27.3871ZM229.41 32.0294C229.541 32.1207 230.194 32.0971 230.377 31.955C230.559 31.813 230.732 31.4749 230.867 31.2382C230.076 32.212 229.71 30.961 229.41 32.0328V32.0294ZM228.997 32.1444L228.666 31.3059L228.121 32.5873L228.997 32.141V32.1444Z" fill="black"/>
<path d="M127.827 39.9785C127.925 40.09 128.077 40.1644 128.04 40.2253L127.84 40.5566L127.827 40.9624C127.827 41.0469 127.546 41.1314 127.411 41.199L127.039 42.2168C127.009 42.3047 126.843 42.5346 126.759 42.5177C126.299 42.4264 126.275 41.8381 125.903 41.9226C125.19 42.0849 125.717 42.467 124.483 43.0282L124.554 42.1356L122.782 42.7645L121.93 43.6098C121.849 43.5827 121.616 43.434 121.65 43.3562L121.866 42.8693C120.635 42.8457 120.774 43.7822 120.25 44.046C120.162 44.0899 119.915 43.9411 119.908 43.8431C119.858 43.3258 120.605 43.1905 120.071 42.3385L120.534 40.8778C121.312 38.4299 122.268 36.1138 123.191 33.7132L125.031 28.9289L130.38 15.3808L132.02 11.6311C131.989 11.4925 131.884 11.2558 131.965 11.1814C132.047 11.107 132.304 10.921 132.381 10.8095C132.804 10.1941 132.959 9.00056 133.839 8.69288C134.112 8.59821 134.153 9.21019 133.987 9.40292C134.065 9.48068 134.359 9.59226 134.342 9.70722L134.258 10.282L135.279 9.70722C135.36 9.66326 135.6 9.64974 135.675 9.69369C135.749 9.73765 135.691 9.89994 135.651 10.1468C136.172 10.3226 136.841 10.1062 137.446 10.0825C137.73 10.0724 138.251 10.2313 138.562 10.1975C139.113 10.14 139.6 10.0791 140.117 10.0555C140.537 10.0386 140.959 10.0555 141.125 9.73089C141.196 9.59564 141.477 9.49421 141.568 9.54492C141.659 9.59564 141.723 9.88304 141.666 9.98447L141.044 11.0698L141.761 10.9413L139.451 15.4754C138.941 16.4796 138.589 17.5481 138.129 18.5962L135.992 23.4549L141.023 22.9917C141.51 22.9477 141.97 22.8598 142.471 22.755C143.245 22.7347 144.252 22.7009 144.986 22.6367C145.101 22.6265 145.412 22.3662 145.47 22.4575C145.541 22.569 145.581 22.9038 145.51 23.0289L144.733 24.4185C143.62 26.41 144.455 25.6289 143.285 27.7083C143.066 28.0972 143.008 28.2933 143.242 28.7261C143.045 29.0304 142.491 29.0371 142.126 29.1149L137.233 30.1766C135.712 30.5079 134.268 30.9847 132.794 31.4783L132.439 32.3777L129.24 39.9041L128.52 41.5676L128.01 42.7544C127.979 42.8287 127.83 42.9944 127.78 43.0384C127.729 43.0823 127.512 43.0147 127.509 42.9437C127.506 42.8524 127.526 42.6901 127.56 42.5853L127.871 41.6048L128.375 40.019C128.185 39.9413 128.043 39.9244 128.077 39.8534L128.26 39.4679C128.601 38.7443 128.872 38.0343 129.068 37.2228C128.51 38.0647 128.28 38.9405 127.83 39.9852L127.827 39.9785ZM139.637 11.4079C139.756 11.2423 139.969 10.8534 139.84 10.7757C139.732 10.7114 139.397 10.6539 139.275 10.6877L138.839 10.8095C138.734 10.8399 139.532 11.5567 139.637 11.4113V11.4079ZM137.805 11.6852C137.832 11.5026 136.885 11.5398 136.709 11.8407C136.614 11.9996 136.692 12.4662 136.875 12.5541L137.805 11.6852ZM135.184 14.7113L136.479 13.112C136.314 13.0748 135.959 13.1086 135.874 13.2405C135.171 14.3664 134.251 15.6749 133.744 16.98C134.298 16.3241 134.711 15.4991 135.184 14.7147V14.7113ZM136.06 16.1415C135.11 17.6292 134.43 19.0425 133.683 20.5877C134.099 20.5505 136.236 16.4931 136.06 16.1415ZM133.923 23.2283C134.407 22.5217 134.718 21.859 134.954 21.0813C134.444 21.7035 134.041 22.3594 133.923 23.2283ZM144.036 23.6375C144.432 23.6442 144.783 23.5157 144.797 23.2216L143.329 23.3839C143.066 23.4143 142.765 23.5462 142.525 23.7152C142.988 24.1582 143.549 24.006 144.036 23.6375ZM135.746 24.1615C137.625 24.3069 139.279 24.0026 140.98 23.6544C141.541 23.4819 142.136 23.6003 142.65 23.1303L137.71 23.8911C137.007 23.9316 136.334 23.9722 135.746 24.1615ZM127.922 24.6315L129.318 21.5784C128.54 22.4676 128.053 23.5394 127.922 24.6315ZM128.939 26.8326C129.521 25.8825 129.923 24.973 130.353 23.8877C130.102 23.5124 128.885 26.6365 128.939 26.8326ZM141.179 27.7658L137.024 28.743C137.399 29.0507 141.477 28.0431 141.179 27.7658ZM141.815 28.5942C141.936 28.5536 141.923 28.06 141.876 28.0532C141.267 28.2899 140.767 28.4995 140.334 28.8106C140.79 28.8072 141.48 28.7058 141.815 28.5942ZM137.747 29.0574C136.909 29.0845 136.131 29.2468 135.292 29.4665C135.607 29.6559 137.362 29.3076 137.747 29.0574ZM131.005 34.4875C131.435 33.7031 131.681 32.9254 131.989 31.9145C131.665 32.3168 131.326 32.8646 131.222 33.4022L131.005 34.4875ZM129.075 35.752C129.731 34.8087 130.143 33.9229 130.532 32.9457C130.136 33.3075 129.829 33.7606 129.666 34.19L129.071 35.752H129.075ZM127.54 35.7216C128.047 34.8391 128.398 33.9398 128.699 32.9592C128.057 33.8011 127.695 34.7039 127.54 35.7216ZM129.592 37.2127C130.106 36.7427 130.332 36.1003 130.265 35.4477C129.808 36.0327 129.622 36.6142 129.592 37.2127ZM125.528 38.4874C126.224 37.3446 126.826 36.151 127.056 34.8594C126.431 36.0733 125.876 37.1924 125.528 38.4874ZM127.675 38.511C127.972 38.0106 128.209 37.4866 128.381 36.9287C127.661 37.2161 127.624 37.8822 127.675 38.511ZM122.786 40.6141C123.469 39.5829 123.976 38.5719 124.284 37.4561C123.688 38.5246 123.039 39.4206 122.786 40.6141ZM124.588 41.7671C125.44 40.7798 125.788 39.6877 126.109 38.4941C125.856 38.8187 125.666 39.1704 125.528 39.5051L124.588 41.7671ZM126.278 40.7696L126.938 38.8864C126.366 39.7519 125.981 40.5499 125.606 41.429C126.214 41.5777 126.143 41.1483 126.278 40.7696Z" fill="black"/>
<path d="M64.0622 27.6847C63.3488 27.5832 65.4012 26.082 65.5702 26.1158C65.107 26.7447 64.6945 27.1268 64.0622 27.6847Z" fill="black"/>
<path d="M65.7934 25.8048C66.1416 25.1387 66.7502 24.7093 67.5245 24.3678C67.0748 24.9493 66.5372 25.4295 65.7934 25.8048Z" fill="black"/>
<path d="M99.2463 14.1433C99.1786 14.1162 98.9656 14.0553 98.871 14.0689L96.6732 14.3766C97.0654 13.3724 97.5084 12.5947 98.0764 11.6886C98.0561 11.6142 97.6605 11.4789 97.5895 11.5837L97.221 12.1078C94.0934 12.145 90.9862 12.189 87.8721 12.1078L87.5036 13.2574C88.3015 13.2134 88.944 13.2337 88.9034 13.3656L87.4191 13.5177L87.2703 13.9877C87.676 13.9979 87.7707 14.0925 87.2906 14.3258L87.1587 14.336L79.5444 38.156L79.4193 38.5482L77.7558 43.7518C77.7118 43.8904 77.6747 44.0696 77.6679 44.1643C77.6611 44.259 77.9654 44.4043 78.0331 44.3333L78.3205 44.0155C78.4591 43.86 78.6552 43.6233 78.8107 43.6064C78.9662 43.5895 79.3179 43.7822 79.4937 43.8431C79.8724 43.647 80.4878 43.4407 80.8766 43.6537L81.0558 44.8067C81.5765 44.6681 81.5089 43.2176 81.9991 43.4103C82.1175 43.4576 82.3169 43.6132 82.4928 43.7586C82.9357 43.4881 83.6491 43.2277 84.1089 43.4509L83.8418 44.4348C83.8249 44.5497 84.2002 44.641 84.2577 44.543C84.8426 43.5388 84.092 44.2184 84.9745 43.1432C84.8765 42.2776 85.8468 40.986 85.8773 40.9252C86.3912 39.877 86.6008 38.6598 87.0607 37.5576C88.2204 34.7681 88.7039 32.7969 89.9718 29.7641L93.8263 20.5302L96.3723 14.7586L98.9115 14.4611C99.0299 14.4476 99.3342 14.1838 99.2429 14.15L99.2463 14.1433ZM78.7904 43.2581C79.1522 42.3148 79.4734 41.5405 80.0245 40.631C80.0719 40.9928 79.4531 43.7011 78.7904 43.2581ZM83.1724 30.163L83.8283 27.8334L85.1131 23.6476C85.2112 23.3298 85.3194 23.0458 85.671 22.8902C85.1774 24.5673 84.6465 26.0753 84.0548 27.7117C83.9095 28.1175 83.8655 28.6415 83.7539 29.0202C83.3042 30.5485 82.885 32.0091 82.0972 33.4461C82.3406 32.3337 82.8478 31.3126 83.1724 30.1597V30.163ZM81.8504 37.2397C82.1614 35.7554 82.6753 34.3387 83.497 32.9795C83.1115 34.4435 82.5469 35.8264 81.8504 37.2397ZM82.1445 38.1222C81.945 39.0791 81.617 39.9548 80.9814 40.8271C81.2248 39.8905 81.6509 38.9912 82.1445 38.1222ZM81.0017 42.9708C80.9408 43.0688 80.5554 42.9708 80.4945 42.9437C80.765 42.5481 80.9577 42.2675 81.1674 41.8786L82.2121 39.9683C82.2967 40.1205 81.0389 42.9099 81.0017 42.9708ZM83.5849 39.2988L82.8106 42.21C82.7835 42.308 82.557 42.538 82.4792 42.5752C82.3812 42.6225 82.1749 42.467 82.2155 42.3655L82.7092 41.0638C83.054 40.1543 83.3989 39.3699 83.8148 38.4637C83.9264 38.7308 83.666 39.0114 83.5882 39.3022L83.5849 39.2988ZM88.2711 15.3638L89.5086 15.2387C89.441 15.4348 89.2043 15.6614 88.9879 15.729L88.1933 15.9792C88.0682 15.915 88.1257 15.3774 88.2711 15.3638ZM87.8383 24.7228C87.8147 24.8547 86.6008 28.2662 86.1579 28.5604C85.8198 29.1588 88.1325 23.1235 87.8383 24.7228ZM87.3683 27.5427C87.3345 28.3237 87.0573 29.0946 86.425 29.7167C86.6685 28.9627 86.9795 28.2967 87.3683 27.5427ZM84.1766 41.7028C84.1259 41.7907 84.0312 42.166 84.0988 42.1863C84.1867 42.21 84.2171 42.2235 84.4538 42.308L84.2814 42.9065L83.4361 42.9302C83.5409 42.5278 83.5511 42.4264 83.4868 42.254L85.1368 38.9675C85.387 38.4671 85.6203 37.9498 85.9449 37.473C85.6271 38.9303 84.8798 40.4789 84.1732 41.6994L84.1766 41.7028ZM84.2814 39.6911C84.6398 37.7875 85.5155 36.0969 86.1647 34.2576C86.4013 33.5915 86.6617 32.9559 87.1215 32.3574L84.2814 39.6911ZM86.922 32.212C86.7259 32.1782 87.8417 29.5105 88.0784 29.9095C87.7065 30.7852 87.3548 31.4546 86.922 32.212ZM91.1113 14.2075L90.8543 13.9674C90.7968 13.9133 90.5973 13.8051 90.5196 13.7747C90.4181 13.7375 90.3066 13.9539 90.1206 14.2413L88.6667 14.2954C88.545 14.2988 88.4672 13.8694 88.5281 13.7612L92.4198 13.4163C92.44 13.5448 92.3285 13.9505 92.1898 14.0418C91.9937 14.1703 90.9963 14.0993 91.1113 14.2075ZM92.4231 20.2124C91.2769 23.0153 90.3742 25.8115 89.0048 28.4116C90.0361 24.7025 91.5576 21.389 93.0926 18.0248C93.0554 18.8194 92.7342 19.4482 92.4198 20.2124H92.4231ZM93.2583 13.5955L93.7519 13.8288C93.5761 14.0452 93.1196 14.2109 92.9134 14.0756C93.0148 13.7308 93.1467 13.3859 93.309 13.2844C93.4814 13.1763 93.9075 13.2202 94.1746 13.3183L93.2583 13.5955ZM95.6961 14.3529C95.7535 13.6124 95.882 13.2236 95.5372 12.5812L96.5684 12.5406C95.8685 13.5887 96.2776 14.0756 95.6995 14.3529H95.6961Z" fill="black"/>
<path d="M81.0152 23.4616C81.1133 23.1438 81.2215 22.8598 81.5731 22.7043C81.5122 22.9139 81.448 23.1202 81.3871 23.323L93.1839 12.8618C93.4206 12.4087 93.6809 11.9726 93.9785 11.5026C93.9582 11.4282 93.5626 11.293 93.4916 11.3978L93.123 11.9219C88.3387 11.976 83.6018 12.0605 78.8175 11.648C74.8886 11.3099 71.1186 11.5736 67.1932 11.5195L63.7207 11.4722C63.0716 11.462 62.4866 11.577 61.8476 11.6514C60.8603 11.7663 59.8358 11.7866 58.8993 11.8204L58.9263 11.3335C58.9297 11.2422 58.5476 11.3876 58.5003 11.462C58.0066 12.2295 57.6077 11.5533 56.9686 12.1315L57.841 12.4054C57.7936 12.7908 57.3372 13.3859 56.9112 13.1526C56.7015 13.0376 56.4615 12.9193 56.3059 12.8787C56.1504 12.8348 55.8326 13.4096 55.9915 13.4467L57.0396 13.7003L56.4276 14.8127L55.153 16.8211C54.7168 17.5075 54.2874 18.0958 53.716 18.6875L54.1285 19.1169L52.9721 20.6993C52.2486 20.7635 51.6197 20.8413 51.0753 21.3417C51.454 21.7407 51.8868 21.6663 52.394 21.6392L52.279 22.0585C52.1032 22.7043 53.4184 21.2436 54.6357 21.5175L67.2506 20.5877C69.5532 20.4186 71.7239 20.4457 74.0873 20.4491C71.9504 22.3729 69.8102 23.9519 67.5989 25.6729C64.4477 28.1242 61.5737 30.7581 58.2535 33.0133L62.7132 28.9289L63.6768 28.0329C62.8349 28.0566 62.5881 28.7193 62.0572 29.169C58.2365 32.3946 54.4767 35.5728 50.8894 39.0622L46.4398 43.3934C46.1524 43.674 45.7534 43.5455 45.6993 44.1271L44.5396 45.2598C44.5497 45.4086 44.6748 45.6892 44.6072 45.7872L44.2624 46.3113C44.188 46.4668 44.7154 46.3417 44.9115 46.2978L47.6401 45.6858C47.6401 45.8616 47.6638 46.2606 47.7821 46.2335C48.6815 46.0104 47.9985 45.679 50.842 45.155C51.8226 44.9758 52.8166 44.6681 53.7599 44.3334C54.3719 44.117 54.8926 43.4813 55.6737 43.6774L55.0346 44.4754C55.0042 44.5159 55.1834 44.7729 55.2273 44.7526C55.8359 44.4754 56.0151 43.8498 56.6846 43.461C57.2154 43.15 58.2399 42.2506 58.7133 41.8279C59.4335 41.1855 60.1976 40.5972 61.0023 39.9717L70.9631 32.2526C72.3967 31.1402 73.7593 30.0853 75.078 28.8545L76.6333 27.4007C76.5995 27.2992 76.4541 27.1166 76.5352 27.0558L76.87 26.8056C77.2419 26.5249 77.5124 26.3153 77.9181 25.9299C77.5935 25.8521 77.3602 25.9975 77.0525 26.1598C77.8978 25.4599 78.6924 24.8107 79.7946 24.1751L79.5512 24.946L80.9374 23.7186L81.0186 23.4583L81.0152 23.4616ZM56.0557 17.0105C56.3972 16.1347 56.874 15.4315 57.5637 14.7147C57.2019 15.6039 56.6948 16.3275 56.0557 17.0105ZM45.3747 45.8481C45.3747 45.2124 47.4947 44.9758 47.8565 45.1854L45.3747 45.8481ZM73.6477 14.6876C72.3561 14.975 71.0646 15.1644 69.7189 15.1542L68.5118 15.1441C67.8931 15.1407 67.325 15.0934 66.7164 14.9919C68.0148 14.7383 69.2962 14.6673 70.6453 14.6707C71.6596 14.6707 72.6097 14.5963 73.6477 14.6842V14.6876ZM72.3088 14.2278C72.2885 13.8525 75.7542 13.9032 75.8522 14.0756C74.6519 14.2312 73.499 14.2751 72.3088 14.2278ZM74.9157 17.7171L70.8482 17.8963C70.1145 17.9436 69.4687 17.9775 68.7755 17.778C70.2666 17.6157 73.5294 17.1592 74.9157 17.7205V17.7171ZM74.8818 16.9293C76.0991 16.6554 77.2486 16.4154 78.645 16.412L77.1269 16.7704C76.3966 16.9428 75.6561 16.9902 74.8818 16.9259V16.9293ZM74.2901 16.2024C73.8337 16.199 73.4888 16.1652 73.0357 16.0333C74.1279 15.8034 75.1591 15.6276 76.2985 15.5769L82.5435 15.2928C82.6246 15.445 82.4725 15.9251 82.2798 15.9353L80.0719 16.0806L79.4802 15.9386L74.2901 16.199V16.2024ZM76.9376 15.0054C77.2351 14.904 77.5867 14.8161 77.9012 14.7992L80.1936 14.6809C80.7481 14.6538 81.262 14.5963 81.8165 14.7586C80.2206 14.9716 78.6856 15.0224 76.9376 15.0054ZM83.196 14.1331L78.05 14.5625C77.5529 14.5456 85.1605 13.1796 83.196 14.1331ZM84.8934 15.543L84.0988 15.7932C83.9737 15.729 84.0312 15.1914 84.1766 15.1779L85.4141 15.0528C85.3464 15.2489 85.1098 15.4754 84.8934 15.543ZM92.4705 12.3546C91.7706 13.4028 92.1797 13.8897 91.6015 14.1669C91.659 13.4265 91.7875 13.0376 91.4426 12.3952L92.4739 12.3546H92.4705ZM89.2144 13.0985C89.3869 12.9903 89.8129 13.0342 90.08 13.1323L89.1637 13.4096L89.6574 13.6429C89.4816 13.8592 89.0251 14.0249 88.8189 13.8897C88.9203 13.5448 89.0522 13.1999 89.2144 13.0985ZM88.0953 13.8559C87.8992 13.9843 86.9018 13.9133 87.0167 14.0215L86.7597 13.7815C86.7023 13.7274 86.5028 13.6192 86.425 13.5888C86.3236 13.5516 86.212 13.768 86.026 14.0553L84.5722 14.1094C84.4504 14.1128 84.3727 13.6834 84.4335 13.5752L88.3252 13.2304C88.3455 13.3588 88.2339 13.7646 88.0953 13.8559ZM84.8088 13.1729L80.4979 13.6124C80.0922 13.2743 84.917 12.8145 84.8088 13.1729ZM82.5502 12.6353C81.7658 12.8787 80.9814 12.713 80.2105 13.0106L79.0812 13.4434C77.5698 14.0249 75.93 13.7341 74.3341 13.6023C77.3061 12.8517 79.4058 12.5541 82.5469 12.6387L82.5502 12.6353ZM78.6417 11.9962C77.749 12.1315 76.8835 12.0977 75.8962 12.074C73.9825 12.0267 72.1938 12.0368 70.2024 11.8441C72.6469 11.6514 75.8691 11.6683 78.6383 11.9962H78.6417ZM65.3504 12.7671C68.2244 12.5474 70.9023 12.7266 73.6004 13.0038C72.5962 13.4197 71.6191 13.0106 70.5946 13.0342C70.1584 13.0444 64.8602 13.4941 65.3504 12.7638V12.7671ZM66.2566 14.336C66.1383 14.5118 64.0217 14.877 64.2617 14.5321C64.2888 14.4949 64.468 14.3563 64.5119 14.3529L66.2532 14.3326L66.2566 14.336ZM63.3116 12.7401L64.992 12.6826C64.7013 13.1391 64.2313 13.325 63.7207 13.3047L63.1967 13.2845C63.0682 13.2777 63.1696 12.7469 63.3082 12.7401H63.3116ZM59.8493 12.4358L58.6592 13.0106L58.3887 12.4121C58.8993 12.2836 59.1292 12.1754 59.8493 12.4358ZM56.9822 18.0383C57.4318 17.3114 57.8748 16.6521 58.4056 15.9792C59.3456 14.7958 58.9872 14.3089 59.9677 14.6268C59.9001 14.9108 59.376 15.2083 59.2002 15.4687L57.8105 17.5244C57.6178 17.8084 57.4318 18.0687 56.9822 18.0383ZM59.633 16.6723C59.4673 16.9395 59.4199 17.0138 59.3118 17.3114C59.1968 17.6258 58.595 17.7509 58.267 17.6698L59.0446 16.6419C59.1359 16.5236 59.6904 16.6351 59.633 16.6757V16.6723ZM60.3937 13.0072C61.0429 12.7638 61.6346 12.7299 62.3953 12.6758L62.3683 12.9835C61.807 13.1932 61.0327 13.3757 60.3937 13.0072ZM62.3243 14.4983C62.6388 14.4983 63.1764 14.4881 63.5754 14.4881L62.206 15.5971L62.6726 14.6132L61.9727 14.9683C61.9659 14.8465 62.1654 14.4949 62.3243 14.4983ZM61.1612 19.7086C62.0606 19.4449 62.9735 19.3671 63.8695 19.4787C62.9296 19.6308 62.0809 19.7323 61.1612 19.7086ZM67.7139 15.5633C66.8314 15.8643 65.8711 16.0604 64.779 16.0096C65.5973 15.4856 66.6184 15.3638 67.7139 15.5633ZM70.7738 19.1068C68.8871 19.2251 67.085 19.3198 65.1543 19.1406C66.4933 18.8396 67.8153 18.8261 69.2015 18.8126L71.8287 18.7855C73.3705 18.7686 74.8413 18.5962 76.4067 18.7551L70.7704 19.1068H70.7738ZM76.6231 20.3544L75.2166 21.2064C75.291 20.9731 76.2816 19.8236 76.6231 20.3544ZM65.4282 32.3473L68.9581 29.497C70.1449 28.4691 71.2708 27.4649 72.6537 26.7008C71.3181 27.9687 69.9657 29.0845 68.5355 30.2171L65.4925 32.6177L61.0868 36.2457C62.2871 34.6363 63.8966 33.5847 65.4282 32.3506V32.3473ZM69.7222 29.8385L68.6403 31.0692C68.3766 31.3667 68.0553 31.5797 67.6733 31.7048C68.265 30.9948 68.8499 30.2848 69.7222 29.8385ZM66.9058 32.2729C66.4459 33.0911 63.7275 35.3226 62.8586 35.5931L64.9379 33.8823L66.9091 32.2695L66.9058 32.2729ZM57.939 33.9229C57.1275 34.7546 56.2214 35.5424 55.109 36.222C55.9171 35.3497 56.8199 34.5754 57.939 33.9229ZM54.6221 36.3201C54.1522 37.3953 53.1006 37.8078 52.3669 38.5482C51.7854 39.1332 51.2241 39.735 50.487 40.1408L54.6221 36.3201ZM49.8987 43.9783C50.4228 43.4103 51.0348 43.4272 51.7177 43.2548L51.7313 43.5489L49.8953 43.9783H49.8987ZM54.5376 42.1728C54.3246 42.7273 53.6281 42.8693 53.0736 42.822C53.4861 42.4602 53.8715 42.068 54.2536 41.8043L55.5486 40.915C54.4024 42.6293 54.6864 41.4763 54.0068 42.2371L54.5376 42.1728ZM55.7616 42.5177L54.9636 42.5752C55.2814 42.183 55.5857 41.9226 55.9746 41.6115L60.1063 38.342L55.7616 42.5177ZM56.1031 43.0316C56.1233 42.707 56.4479 42.3791 56.6846 42.1491L59.7682 39.1602L61.31 37.5948C62.3751 36.5128 63.6024 35.6269 64.8838 34.6397C64.6844 35.2821 64.0825 35.5289 63.6565 35.938L61.239 38.2473L56.1031 43.0316ZM60.627 39.5626C61.8205 38.2676 62.9938 37.0977 64.3057 35.8501C64.8061 35.3767 67.0647 33.7098 66.7705 33.2094C66.7367 33.1486 66.9768 33.2568 67.085 33.294L69.9555 30.8325C71.5683 29.4496 73.1237 28.1276 74.9528 26.9577C74.3409 27.6914 73.641 28.1648 72.9411 28.7599L65.6345 34.9473C65.1915 35.3226 64.7858 35.6202 64.3834 36.0225L62.3007 38.1121C61.7867 38.6294 61.425 39.2752 60.6236 39.566L60.627 39.5626ZM63.954 37.1045C64.6336 36.266 65.7866 35.3294 66.5406 34.7107C66.6082 34.6566 66.8449 34.6667 66.899 34.6566C67.254 34.5957 64.1569 37.0876 63.954 37.1045ZM75.4194 27.7726L73.783 29.3921C71.8253 31.3295 69.5904 32.9051 67.2946 34.5213C67.9674 33.5983 68.7688 32.9423 69.6073 32.2357C71.9741 30.2408 74.2225 28.2527 76.7178 26.4066C76.285 26.8901 75.8658 27.333 75.4194 27.7726ZM76.3831 24.4219L78.1142 22.9815L78.2968 23.323C77.5732 23.8268 77.1404 24.1446 76.3831 24.4219ZM78.2494 24.0466C78.8952 23.3163 79.5343 22.7719 80.3255 22.2309C80.8529 22.5217 78.148 24.503 78.2494 24.0466ZM81.4007 17.1389C80.8563 17.5819 77.5124 17.494 76.8125 17.3824C78.6687 16.6521 80.4303 16.5067 82.3237 16.3917L81.404 17.1389H81.4007Z" fill="black"/>
</g>
<defs>
<clipPath id="clip0_1_69">
<rect width="323.689" height="54" fill="white"/>
</clipPath>
</defs>
</svg>
